<svg xmlns="http://www.w3.org/2000/svg" viewBox="0 0 500 500"><g id="freepik--background-complete--inject-17"><path d="M386,308.33a19,19,0,0,0-1-14.09c-2.29-4.3-8-8-13.71-8.21-10-.29-15.72,4.77-17.93,13.23-2.07,7.93-.53,16.7,4.94,23,3,3.5,7.7,6.41,12.36,5.4,3.62-.78,6.25-3.7,8.42-6.57C382.05,317.19,384.7,313,386,308.33Z" style="fill:#ebebeb"></path><path d="M366.66,327.56a9.49,9.49,0,0,0-1.82,2.42.94.94,0,0,0-.09.91.78.78,0,0,0,1,.19,2.18,2.18,0,0,0,.78-.73,8.33,8.33,0,0,0,1.55.92,1,1,0,0,0,.79.11.62.62,0,0,0,.34-.51c0-.21.36-.72.3-.92-.26-.86-1-1.39-1.51-2.18" style="fill:#ebebeb"></path><path d="M366.5,330c-.13,0-.29-.54-.09-1.21s.62-1.07.72-1-.1.54-.26,1.12S366.63,330,366.5,330Z" style="fill:#e0e0e0"></path><path d="M367.47,329.39c-.11.05-.39-.28-.47-.77s.08-.88.21-.87.19.38.26.8S367.59,329.34,367.47,329.39Z" style="fill:#e0e0e0"></path><path d="M142.62,311.55c4.45-2.32,8.29-6,9.95-10.51A15.43,15.43,0,0,0,149.22,286c-6.72-7-14.56-7.38-22.49-3-7.44,4.12-13,11.28-14,19.4-.53,4.51.51,9.71,4.52,12.18,3.12,1.92,7.15,1.68,10.83,1.15A44.71,44.71,0,0,0,142.62,311.55Z" style="fill:#ebebeb"></path><path d="M114.59,311.76a10.8,10.8,0,0,0-3.1.44c-.32.11-.66.27-.75.58a.71.71,0,0,0,.54.8,2.36,2.36,0,0,0,1.09,0,8.2,8.2,0,0,0,.38,1.7,1,1,0,0,0,.48.62.7.7,0,0,0,.62-.13c.17-.13.79-.25.9-.44a10.23,10.23,0,0,0,.6-2.54" style="fill:#ebebeb"></path><path d="M112.64,313.34c-.1-.07.21-.57.85-.9s1.25-.32,1.26-.2-.48.3-1,.6S112.74,313.43,112.64,313.34Z" style="fill:#e0e0e0"></path><path d="M113.77,313.59c-.12,0-.06-.46.25-.86s.73-.56.8-.46-.15.39-.42.74S113.89,313.63,113.77,313.59Z" style="fill:#e0e0e0"></path><path d="M76.43,261.73c3.17-6.58,4.42-14.36,2.2-21.57S69,225.5,60.72,223.43c-14.5-3.61-24.25,2.19-29.69,14.24-5.1,11.3-5.14,25,1.23,36.27,3.53,6.24,9.58,12.11,16.66,12.07,5.51,0,10.11-3.59,14-7.23C68.29,273.81,73.26,268.3,76.43,261.73Z" style="fill:#f5f5f5"></path><path d="M43.07,284.56a13.93,13.93,0,0,0-3.3,3.06A1.52,1.52,0,0,0,39.4,289a1.2,1.2,0,0,0,1.39.6,3.16,3.16,0,0,0,1.33-.86,14,14,0,0,0,2,1.89,1.48,1.48,0,0,0,1.13.41.88.88,0,0,0,.62-.66c.09-.31.72-1,.69-1.29-.16-1.39-1.16-2.44-1.64-3.77" style="fill:#f5f5f5"></path><path d="M42.2,288.17a2.45,2.45,0,0,1,.32-1.79c.44-.92,1.11-1.43,1.19-1.34s-.41.68-.82,1.53A12.39,12.39,0,0,1,42.2,288.17Z" style="fill:#f5f5f5"></path><path d="M43.78,287.57c-.11,0-.36-.55-.34-1.3s.28-1.29.38-1.25,0,.6,0,1.28S43.89,287.55,43.78,287.57Z" style="fill:#f5f5f5"></path><path d="M65.69,38.76A15.58,15.58,0,0,0,67.9,27.41a13.38,13.38,0,0,0-9.08-9.14c-7.83-2.16-13.47.73-17,7-3.34,5.88-4,13.12-1,19.17,1.65,3.36,4.71,6.56,8.61,6.66,3,.08,5.75-1.72,8.08-3.57A34.42,34.42,0,0,0,65.69,38.76Z" style="fill:#f5f5f5"></path><path d="M46.23,50.23a7.88,7.88,0,0,0-2,1.57.79.79,0,0,0-.27.7.65.65,0,0,0,.74.34,1.69,1.69,0,0,0,.77-.43,6.69,6.69,0,0,0,1,1,.79.79,0,0,0,.61.24l.17,0c.64-.13.64-.81.64-1a8.69,8.69,0,0,0-.73-2" style="fill:#f5f5f5"></path><path d="M45.58,52.13c-.07,0-.06-.47.24-1s.69-.74.74-.68-.24.37-.5.81S45.66,52.14,45.58,52.13Z" style="fill:#e0e0e0"></path><path d="M46.48,51.84c-.07,0-.2-.3-.15-.7s.22-.68.29-.65,0,.32,0,.68S46.56,51.83,46.48,51.84Z" style="fill:#e0e0e0"></path><path d="M70.54,409.39c-.43-6.71-2.9-13.37-7.81-17.85s-14-6.53-21.36-3.94c-12.9,4.51-17.94,13.93-16.86,26,1,11.35,7,22,17,27.53,5.51,3.07,12.82,4.56,18.32,1,4.29-2.8,6.3-7.89,7.75-12.69C69.53,422.88,71,416.09,70.54,409.39Z" style="fill:#f5f5f5"></path><path d="M54.6,444a13.47,13.47,0,0,0-1.22,4,1.32,1.32,0,0,0,.31,1.23A1.07,1.07,0,0,0,55,449a3.16,3.16,0,0,0,.65-1.34,11.48,11.48,0,0,0,2.42.44,1.34,1.34,0,0,0,1.07-.25l.21-.22a1.48,1.48,0,0,0-.06-1.95c-.74-1-2-1.31-2.94-2.1" style="fill:#f5f5f5"></path><path d="M55.51,447.19c-.11.06-.52-.6-.58-1.54s.26-1.69.38-1.65,0,.74.09,1.6S55.64,447.13,55.51,447.19Z" style="fill:#e0e0e0"></path><path d="M56.48,445.93c-.08.09-.55-.22-.87-.82s-.34-1.16-.22-1.18.34.42.63.95S56.58,445.83,56.48,445.93Z" style="fill:#e0e0e0"></path><path d="M436.43,329.64c-5.67,3.88-10.28,9.45-11.76,15.93s1.24,15.18,7.2,20c10.41,8.49,21.19,7.8,31.26.55,9.45-6.79,15.8-17.45,15.69-28.71-.07-6.24-2.4-13.18-8.31-15.92-4.6-2.14-10.07-1.17-15,.13C448.77,323.42,442.1,325.77,436.43,329.64Z" style="fill:#f5f5f5"></path><path d="M474.71,325a14.52,14.52,0,0,0,4.16-1.09c.41-.2.85-.47.92-.91s-.39-.9-.88-1a3.22,3.22,0,0,0-1.5.15,10.19,10.19,0,0,0-.82-2.26c-.16-.33-.38-.69-.75-.77l-.3-.07c-1.06-.23-1.57.81-1.68,1.07-.51,1.15-.17,2.35-.37,3.58" style="fill:#f5f5f5"></path><path d="M477.1,322.48c.11.06-.26.76-1.06,1.3s-1.61.66-1.64.55.64-.42,1.36-.92S477,322.41,477.1,322.48Z" style="fill:#e0e0e0"></path><path d="M475.51,322.32c.12,0,.08.59-.28,1.17s-.85.89-.94.8.21-.5.53-1S475.38,322.29,475.51,322.32Z" style="fill:#e0e0e0"></path><path d="M269.2,227.27c3.46-5.76,5.23-12.65,3.73-19.12s-7.76-13.32-15.31-15.4c-13.17-3.64-22.68,1.24-28.68,11.79-5.63,9.91-6.74,22.11-1.72,32.3,2.78,5.66,7.94,11,14.52,11.23,5.11.13,9.67-2.91,13.59-6C260.69,237.78,265.73,233,269.2,227.27Z" style="fill:#ebebeb"></path><path d="M236.42,246.6a13.7,13.7,0,0,0-3.31,2.64,1.32,1.32,0,0,0-.44,1.18,1.09,1.09,0,0,0,1.24.58,3.17,3.17,0,0,0,1.3-.73,11.38,11.38,0,0,0,1.73,1.74,1.36,1.36,0,0,0,1,.4l.29-.06c1.07-.2,1.08-1.35,1.07-1.64,0-1.24-.88-2.2-1.22-3.4" style="fill:#ebebeb"></path><path d="M235.32,249.79c-.12,0-.09-.79.4-1.6s1.18-1.24,1.25-1.14-.4.63-.83,1.36S235.46,249.82,235.32,249.79Z" style="fill:#e0e0e0"></path><path d="M236.84,249.31c-.12,0-.33-.51-.26-1.17s.39-1.15.51-1.1,0,.54,0,1.14S237,249.28,236.84,249.31Z" style="fill:#e0e0e0"></path><path d="M474.82,182.42c3-5,4.56-11,3.26-16.66s-6.76-11.6-13.34-13.42c-11.48-3.16-19.76,1.09-25,10.28-4.9,8.63-5.87,19.26-1.5,28.14,2.43,4.93,6.92,9.63,12.65,9.78,4.46.12,8.43-2.53,11.85-5.25C467.41,191.58,471.81,187.43,474.82,182.42Z" style="fill:#f5f5f5"></path><path d="M446.27,199.26a11.91,11.91,0,0,0-2.88,2.3,1.15,1.15,0,0,0-.39,1,.94.94,0,0,0,1.09.5,2.6,2.6,0,0,0,1.12-.63,10.33,10.33,0,0,0,1.52,1.51,1.14,1.14,0,0,0,.89.35l.26,0c.93-.18.93-1.18.93-1.43,0-1.08-.77-1.91-1.07-3" style="fill:#f5f5f5"></path><path d="M445.31,202c-.1,0-.08-.69.35-1.39s1-1.08,1.09-1-.35.55-.73,1.19S445.43,202.06,445.31,202Z" style="fill:#e0e0e0"></path><path d="M446.64,201.62c-.11,0-.29-.44-.23-1s.34-1,.44-1,0,.48,0,1S446.75,201.6,446.64,201.62Z" style="fill:#e0e0e0"></path><path d="M122.18,206.19a3.93,3.93,0,0,1,.5-.75,11.46,11.46,0,0,0,1.24-2.09,3.83,3.83,0,0,0,0-3.34,2.82,2.82,0,0,0-1.54-1.25,8.12,8.12,0,0,0-2.31-.3,15.24,15.24,0,0,1-2.44-.18,4.43,4.43,0,0,1-2.1-1,3.85,3.85,0,0,1-1.38-3.4,3.92,3.92,0,0,1,1.12-2.23,1.91,1.91,0,0,1,.77-.53s-.26.21-.63.65a3.91,3.91,0,0,0-.92,2.15,3.56,3.56,0,0,0,1.33,3.05,4.14,4.14,0,0,0,1.9.85,17.78,17.78,0,0,0,2.37.16,8.06,8.06,0,0,1,2.45.34,3.22,3.22,0,0,1,1.77,1.47,4.12,4.12,0,0,1-.07,3.66,9.24,9.24,0,0,1-1.4,2.06A3.43,3.43,0,0,1,122.18,206.19Z" style="fill:#ebebeb"></path><path d="M39.43,330.17a4.67,4.67,0,0,1,.23,1.08,11.48,11.48,0,0,1,.12,3,5.3,5.3,0,0,1-2.29,3.9,4.28,4.28,0,0,1-2.79.59,19.85,19.85,0,0,1-2.92-.66,6.44,6.44,0,0,0-2.82-.27,3.18,3.18,0,0,0-2.06,1.37,4.16,4.16,0,0,0-.69,2.14,4.76,4.76,0,0,0,.35,2,9.57,9.57,0,0,0,1.58,2.54,7.59,7.59,0,0,1,.71.87A4.53,4.53,0,0,1,28,346a8.56,8.56,0,0,1-1.75-2.53,4.66,4.66,0,0,1,.28-4.45,3.61,3.61,0,0,1,2.33-1.58,7,7,0,0,1,3,.27,20.38,20.38,0,0,0,2.85.66,3.87,3.87,0,0,0,2.5-.5,5,5,0,0,0,2.2-3.6,13.41,13.41,0,0,0,0-3A5.38,5.38,0,0,1,39.43,330.17Z" style="fill:#ebebeb"></path><path d="M244.69,95a4.4,4.4,0,0,0,1.59.29,4.47,4.47,0,0,0,3.37-2.43,3.86,3.86,0,0,0,.39-2.76,6.19,6.19,0,0,0-1.65-2.88A12.15,12.15,0,0,0,245.31,85c-1.18-.65-2.52-1.14-3.83-1.77a12.66,12.66,0,0,1-3.58-2.31,4.87,4.87,0,0,1-1.53-3.56,5.5,5.5,0,0,1,1.29-3.26,6.94,6.94,0,0,1,2.47-1.92,11.35,11.35,0,0,1,4.45-1c.54,0,1,0,1.24,0l.43.06s-.59,0-1.66.09a11.71,11.71,0,0,0-4.3,1.08A6.74,6.74,0,0,0,238,74.32a5.16,5.16,0,0,0-1.16,3.05,4.45,4.45,0,0,0,1.43,3.24,12.11,12.11,0,0,0,3.45,2.22c1.29.61,2.63,1.11,3.85,1.78A12.51,12.51,0,0,1,248.71,87,6.45,6.45,0,0,1,250.43,90a4.18,4.18,0,0,1-.48,3,4.6,4.6,0,0,1-3.66,2.45,2.74,2.74,0,0,1-1.23-.25A1.41,1.41,0,0,1,244.69,95Z" style="fill:#ebebeb"></path><path d="M333.72,37.38a7.51,7.51,0,0,1,1.31-.23,23.74,23.74,0,0,0,3.51-.75,7.54,7.54,0,0,0,4.15-2.88,4.33,4.33,0,0,0,.81-2.72A5.1,5.1,0,0,0,342.24,28c-.68-.88-1.46-1.69-2.06-2.6a5.6,5.6,0,0,1-1-2.95A7,7,0,0,1,341,17.6a6.48,6.48,0,0,1,3-1.93,4.46,4.46,0,0,1,1-.19,1.33,1.33,0,0,1,.35,0s-.11,0-.33.1a5.06,5.06,0,0,0-.93.26,6.66,6.66,0,0,0-2.83,2,6.79,6.79,0,0,0-1.66,4.6,5.35,5.35,0,0,0,.93,2.73c.58.87,1.35,1.66,2.06,2.57A5.67,5.67,0,0,1,344,30.77a4.77,4.77,0,0,1-.91,3,7.8,7.8,0,0,1-4.42,3,19,19,0,0,1-3.59.61A7.39,7.39,0,0,1,333.72,37.38Z" style="fill:#ebebeb"></path><path d="M470.6,108.91a1,1,0,0,1-.05.26l-.2.73a14,14,0,0,1-1.23,2.69,14.78,14.78,0,0,1-3.09,3.58,15,15,0,0,1-5.63,3A15.63,15.63,0,0,1,445,114.76a11.31,11.31,0,0,1-3-8.85,7.73,7.73,0,0,1,2.19-4.57,7.89,7.89,0,0,1,5-2,6.59,6.59,0,0,1,5.08,1.78,5.16,5.16,0,0,1,1.27,4.83,7.69,7.69,0,0,1-2.61,4.18,9.83,9.83,0,0,1-4.47,1.94,15.47,15.47,0,0,1-4.65.07,22.16,22.16,0,0,1-4.27-1,16.12,16.12,0,0,1-6.61-4,10.24,10.24,0,0,1-1.89-2.73,8.5,8.5,0,0,1-.74-2.82,8.23,8.23,0,0,1,.87-4.54,6.29,6.29,0,0,1,1.92-2.28,5.14,5.14,0,0,1,.92-.54s-.32.19-.86.61a6.6,6.6,0,0,0-1.82,2.28,8.11,8.11,0,0,0-.76,4.45,8,8,0,0,0,.75,2.73,10,10,0,0,0,1.86,2.62,15.68,15.68,0,0,0,6.49,3.82,18.53,18.53,0,0,0,8.71.84,9.35,9.35,0,0,0,4.25-1.86,7.22,7.22,0,0,0,2.45-3.94,4.72,4.72,0,0,0-1.16-4.43,6.06,6.06,0,0,0-4.71-1.63,7.4,7.4,0,0,0-4.7,1.87,7.3,7.3,0,0,0-2.06,4.32,10.92,10.92,0,0,0,2.89,8.52,15.14,15.14,0,0,0,7.38,4.38A14.66,14.66,0,0,0,465.85,116,14.74,14.74,0,0,0,469,112.5a15,15,0,0,0,1.3-2.62l.24-.72A1.1,1.1,0,0,1,470.6,108.91Z" style="fill:#ebebeb"></path><path d="M442.42,12.13s.06,0,.15.18l.4.56a8.39,8.39,0,0,1,1,2.43,9.78,9.78,0,0,1,0,4.14,12.38,12.38,0,0,1-2.42,5,12.67,12.67,0,0,1-2.4,2.26,13.34,13.34,0,0,1-1.51.95,13.75,13.75,0,0,1-1.72.7,16.24,16.24,0,0,1-8,.46,22.11,22.11,0,0,1-8.16-3.32,19.93,19.93,0,0,1-3.58-2.94,10,10,0,0,1-2.35-4.06,5,5,0,0,1-.08-2.39A4.11,4.11,0,0,1,414.93,14a5.55,5.55,0,0,1,4.52-1.31,7,7,0,0,1,4,2.1,10,10,0,0,1,2.27,3.57A11.83,11.83,0,0,1,426,26a11.58,11.58,0,0,1-3.75,5.59,12,12,0,0,1-2.57,1.6,12.76,12.76,0,0,1-2.58.89,13.38,13.38,0,0,1-4.35.33,12.49,12.49,0,0,1-2.69-.54l-.67-.25-.22-.1a16.08,16.08,0,0,0,3.6.72,13.71,13.71,0,0,0,4.27-.4,12.64,12.64,0,0,0,2.5-.91A11.56,11.56,0,0,0,422,31.31a11.28,11.28,0,0,0,3.59-5.46,11.48,11.48,0,0,0-.25-7.35,9.63,9.63,0,0,0-2.18-3.42,6.54,6.54,0,0,0-3.75-1.95,5.06,5.06,0,0,0-4.12,1.19,4,4,0,0,0-1,4,9.69,9.69,0,0,0,2.25,3.88A19.9,19.9,0,0,0,420,25.11a21.84,21.84,0,0,0,8,3.27,15.89,15.89,0,0,0,7.8-.4,12.38,12.38,0,0,0,1.67-.67,13.4,13.4,0,0,0,1.47-.9,12.74,12.74,0,0,0,2.36-2.19,12.33,12.33,0,0,0,2.42-4.83,9.85,9.85,0,0,0,.11-4.05A10.45,10.45,0,0,0,442.42,12.13Z" style="fill:#ebebeb"></path><ellipse cx="457" cy="232.18" rx="4.96" ry="4.71" style="fill:#ebebeb"></ellipse><path d="M466.93,58.42a5,5,0,1,1-5-4.71A4.84,4.84,0,0,1,466.93,58.42Z" style="fill:#ebebeb"></path><path d="M140.69,26.43a5,5,0,1,1-5-4.71A4.84,4.84,0,0,1,140.69,26.43Z" style="fill:#ebebeb"></path><path d="M321.23,245.79a5,5,0,1,1-5-4.71A4.84,4.84,0,0,1,321.23,245.79Z" style="fill:#ebebeb"></path><path d="M110.43,225.42a5,5,0,1,1-5-4.71A4.85,4.85,0,0,1,110.43,225.42Z" style="fill:#ebebeb"></path><path d="M473.08,205.11a2.48,2.48,0,1,1-2.48-2.36A2.42,2.42,0,0,1,473.08,205.11Z" style="fill:#ebebeb"></path><path d="M479.6,284.72a2.49,2.49,0,1,1-2.48-2.35A2.42,2.42,0,0,1,479.6,284.72Z" style="fill:#ebebeb"></path><path d="M318,41.05a2.49,2.49,0,1,1-2.49-2.35A2.43,2.43,0,0,1,318,41.05Z" style="fill:#ebebeb"></path><path d="M493.93,19.51a2.48,2.48,0,1,1-2.48-2.36A2.42,2.42,0,0,1,493.93,19.51Z" style="fill:#ebebeb"></path><path d="M253.3,56.32a2.3,2.3,0,0,1,1.07,3.18,2.55,2.55,0,0,1-3.34,1A2.3,2.3,0,0,1,250,57.34,2.55,2.55,0,0,1,253.3,56.32Z" style="fill:#ebebeb"></path><path d="M380.88,354.31a2.3,2.3,0,0,1,1.07,3.18,2.55,2.55,0,0,1-3.34,1,2.29,2.29,0,0,1-1.07-3.17A2.55,2.55,0,0,1,380.88,354.31Z" style="fill:#ebebeb"></path><path d="M101.63,352a2.3,2.3,0,0,1,1.07,3.17,2.55,2.55,0,0,1-3.34,1A2.3,2.3,0,0,1,98.29,353,2.55,2.55,0,0,1,101.63,352Z" style="fill:#ebebeb"></path><path d="M463.09,422.27a2.3,2.3,0,0,1,1.07,3.17,2.56,2.56,0,0,1-3.35,1,2.31,2.31,0,0,1-1.07-3.18A2.56,2.56,0,0,1,463.09,422.27Z" style="fill:#ebebeb"></path><path d="M163.94,112.32a2.29,2.29,0,0,1,1.07,3.17,2.55,2.55,0,0,1-3.34,1,2.29,2.29,0,0,1-1.07-3.17A2.54,2.54,0,0,1,163.94,112.32Z" style="fill:#ebebeb"></path><path d="M46.22,76.2s15.09,25.55,18.56,24.27C69.26,98.83,76.43,71.1,76.43,71.1S48.93,75.83,46.22,76.2Z" style="fill:#f5f5f5"></path><path d="M79.42,70.59S96.86,94.76,100.19,93.2C104.5,91.18,109,63,109,63S82.09,70,79.42,70.59Z" style="fill:#ebebeb"></path><path d="M111.87,62.05s19.66,22.59,22.83,20.74c4.09-2.37,5.94-30.88,5.94-30.88S114.46,61.23,111.87,62.05Z" style="fill:#f5f5f5"></path><path d="M142,51.53S163,73,166.05,71c3.94-2.6,4-31.16,4-31.16S144.52,50.56,142,51.53Z" style="fill:#ebebeb"></path><path d="M171.59,38.5s23.24,19.28,26.06,17c3.63-3,.6-31.39.6-31.39S174,37.29,171.59,38.5Z" style="fill:#f5f5f5"></path><path d="M199.75,23.12s24.71,17.55,27.33,15.05c3.39-3.22-1.89-31.34-1.89-31.34S202.06,21.74,199.75,23.12Z" style="fill:#ebebeb"></path><path d="M13,79.09S26,105.69,29.52,104.68c4.59-1.31,14.05-28.42,14.05-28.42S15.76,78.92,13,79.09Z" style="fill:#ebebeb"></path><path d="M228.84,4c-.92.68-1.89,1.35-2.89,2l-3,2.07-9.05,6A406,406,0,0,1,172.75,37.2c-8.61,4.14-17.22,8-25.57,11.36-9.37,3.75-18.9,7.2-28.32,10.24l-7.35,2.31-7.32,2.11-7.25,2L89.79,67l-2.53.61c-1.52.37-3,.73-4.54,1l-7,1.5c-1.49.31-3,.59-4.44.87l-2.41.46-6.71,1.2c-9,1.59-17.8,2.63-25.28,3.47-9,.86-16,1.38-22.2,1.62l-5,.21c-1,0-2.06.06-3.06.07-.56,0-1.11,0-1.66,0l-2,0,.06,1.3,2,0,1.62,0c1,0,2.07,0,3.13-.07l5-.2c6.21-.23,13.29-.74,22.29-1.59,7.51-.84,16.29-1.86,25.39-3.46l6.74-1.2,2.39-.45c1.49-.28,3-.56,4.49-.88l7-1.49c1.52-.32,3-.69,4.56-1.06l2.54-.61,3.6-.86,18.21-5,7.37-2.31c9.47-3.06,19-6.53,28.43-10.29,8.38-3.42,17-7.26,25.66-11.42a402.13,402.13,0,0,0,41.26-23.22l6.09-4,1.24-.85,4.74-3.28c1-.7,2-1.38,2.92-2.07Z" style="fill:#e0e0e0"></path><path d="M454.78,76.2s-15.09,25.55-18.56,24.27c-4.48-1.64-11.65-29.37-11.65-29.37S452.07,75.83,454.78,76.2Z" style="fill:#f5f5f5"></path><path d="M421.58,70.59S404.14,94.76,400.81,93.2C396.5,91.18,392,63,392,63S418.91,70,421.58,70.59Z" style="fill:#ebebeb"></path><path d="M389.13,62.05S369.47,84.64,366.3,82.79c-4.09-2.37-5.94-30.88-5.94-30.88S386.54,61.23,389.13,62.05Z" style="fill:#f5f5f5"></path><path d="M359,51.53S338,73,335,71c-3.94-2.6-4-31.16-4-31.16S356.48,50.56,359,51.53Z" style="fill:#ebebeb"></path><path d="M329.41,38.5s-23.24,19.28-26.06,17c-3.63-3-.6-31.39-.6-31.39S327,37.29,329.41,38.5Z" style="fill:#f5f5f5"></path><path d="M301.25,23.12s-24.71,17.55-27.33,15.05c-3.39-3.22,1.89-31.34,1.89-31.34S298.94,21.74,301.25,23.12Z" style="fill:#ebebeb"></path><path d="M488,79.09s-12.92,26.6-16.49,25.59c-4.59-1.31-14.05-28.42-14.05-28.42S485.24,78.92,488,79.09Z" style="fill:#ebebeb"></path><path d="M272.16,4c.92.68,1.89,1.35,2.89,2l3,2.07,9.05,6A406,406,0,0,0,328.25,37.2c8.61,4.14,17.22,8,25.57,11.36,9.37,3.75,18.9,7.2,28.32,10.24l7.35,2.31,7.32,2.11,7.25,2,7.15,1.8,2.53.61c1.52.37,3,.73,4.54,1l7,1.5c1.49.31,3,.59,4.44.87l2.41.46,6.71,1.2c9,1.59,17.8,2.63,25.28,3.47,9,.86,16,1.38,22.2,1.62l5,.21c1,0,2.06.06,3.06.07.56,0,1.11,0,1.66,0l2,0-.06,1.3-2,0-1.62,0c-1,0-2.07,0-3.13-.07l-5-.2c-6.21-.23-13.29-.74-22.29-1.59-7.51-.84-16.29-1.86-25.39-3.46l-6.74-1.2-2.39-.45c-1.49-.28-3-.56-4.49-.88L418,70c-1.52-.32-3-.69-4.56-1.06l-2.54-.61-3.6-.86-18.21-5-7.37-2.31c-9.47-3.06-19-6.53-28.43-10.29-8.38-3.42-17-7.26-25.66-11.42a402.13,402.13,0,0,1-41.26-23.22l-6.09-4L279,10.37l-4.74-3.28c-1-.7-2-1.38-2.92-2.07Z" style="fill:#e0e0e0"></path></g><g id="freepik--Floor--inject-17"><path d="M462,470.64c0,.15-94.9.26-211.94.26s-212-.11-212-.26,94.88-.26,212-.26S462,470.5,462,470.64Z" style="fill:#263238"></path></g><g id="freepik--Device--inject-17"><path d="M414.81,470.64l-134.49-.08c-16.18,0-29.28-13.75-29.28-30.69l.07-353.13c0-16.95,13.12-30.69,29.31-30.68l134.49.08c16.17,0,29.28,13.75,29.28,30.69L444.12,440C444.12,456.92,431,470.65,414.81,470.64Z" style="fill:#455a64"></path><path d="M414.76,68.63H388.69c-3.5,0-6.33,3.1-6.33,6.93v5c0,3.83-2.84,6.93-6.34,6.93l-50.82,0c-3.5,0-6.33-3.11-6.33-6.94V75.51c0-3.83-2.84-6.94-6.33-6.94h-9.17l-22.82,0C269.21,68.54,260,78.16,260,90L260,434.72c0,11.87,9.18,21.49,20.51,21.49l134.22.09c11.33,0,20.52-9.62,20.53-21.49l.06-344.68C435.27,78.26,426.09,68.64,414.76,68.63Z" style="fill:#263238"></path><rect x="267.95" y="100.37" width="164.02" height="2.5" rx="1.16" style="fill:#e0e0e0"></rect><rect x="267.95" y="100.37" width="89.82" height="2.5" rx="1.16" style="fill:#FF725E"></rect><path d="M414.18,441.75h-130c-7.92,0-14.34-6.72-14.34-15v-3.54c0-8.3,6.42-15,14.34-15h130c7.92,0,14.34,6.72,14.34,15v3.54C428.52,435,422.1,441.75,414.18,441.75Z" style="fill:#fff"></path><ellipse cx="412.69" cy="424.75" rx="9.59" ry="10.04" style="fill:#FF725E"></ellipse><path d="M412.44,431h0a.3.3,0,0,1-.26-.23L410.93,426l-4.25-1.58a.29.29,0,0,1-.2-.29.31.31,0,0,1,.2-.29l10-3.74a.28.28,0,0,1,.32.08.31.31,0,0,1,.05.33l-4.35,10.29A.28.28,0,0,1,412.44,431Zm-4.78-6.85,3.62,1.34a.31.31,0,0,1,.18.21l1.05,4.07,3.73-8.83Z" style="fill:#fff"></path><path d="M411.18,426a.28.28,0,0,1-.22-.1.31.31,0,0,1,0-.43l5.61-5.38a.29.29,0,0,1,.42,0,.32.32,0,0,1,0,.44L411.38,426A.27.27,0,0,1,411.18,426Z" style="fill:#fff"></path><path d="M305.67,422.18h-1.54v-.42h3.54v.42h-1.54v4.17h-.46Z" style="fill:#263238"></path><path d="M310.87,422.9l-1.64,3.87c-.28.67-.63.89-1.1.89a1.09,1.09,0,0,1-.8-.32l.21-.34a.79.79,0,0,0,.6.26c.29,0,.49-.15.68-.58l.14-.33-1.47-3.45H308l1.23,2.93,1.24-2.93Z" style="fill:#263238"></path><path d="M314.84,424.63a1.64,1.64,0,0,1-1.64,1.76,1.43,1.43,0,0,1-1.26-.69v1.92h-.44V422.9h.43v.69a1.4,1.4,0,0,1,1.27-.71A1.63,1.63,0,0,1,314.84,424.63Zm-.45,0a1.23,1.23,0,1,0-2.45,0,1.23,1.23,0,1,0,2.45,0Z" style="fill:#263238"></path><path d="M318.61,424.77h-2.75a1.24,1.24,0,0,0,1.29,1.2,1.26,1.26,0,0,0,1-.45l.25.3a1.58,1.58,0,0,1-1.27.57,1.68,1.68,0,0,1-1.73-1.76,1.63,1.63,0,0,1,1.61-1.75,1.61,1.61,0,0,1,1.6,1.75S318.61,424.72,318.61,424.77Zm-2.75-.34h2.33a1.17,1.17,0,0,0-2.33,0Z" style="fill:#263238"></path><path d="M323.65,424.22v2.13h-.42v-.54a1.21,1.21,0,0,1-1.13.58c-.75,0-1.21-.41-1.21-1s.33-1,1.27-1h1v-.21a.83.83,0,0,0-.93-.92,1.64,1.64,0,0,0-1.1.41l-.2-.35a2.05,2.05,0,0,1,1.34-.46A1.19,1.19,0,0,1,323.65,424.22Zm-.44,1.1v-.57h-1c-.64,0-.85.27-.85.62s.31.65.83.65A1,1,0,0,0,323.21,425.32Z" style="fill:#263238"></path><path d="M331.94,424.35v2h-.45v-2c0-.73-.35-1.1-.94-1.1s-1.1.46-1.1,1.24v1.81H329v-2c0-.73-.35-1.1-.95-1.1a1.09,1.09,0,0,0-1.1,1.24v1.81h-.45V422.9h.43v.63a1.32,1.32,0,0,1,1.21-.65,1.18,1.18,0,0,1,1.17.73,1.42,1.42,0,0,1,1.3-.73C331.41,422.88,331.94,423.36,331.94,424.35Z" style="fill:#263238"></path><path d="M336,424.77h-2.76a1.25,1.25,0,0,0,1.3,1.2,1.28,1.28,0,0,0,1-.45l.25.3a1.59,1.59,0,0,1-1.27.57,1.67,1.67,0,0,1-1.73-1.76,1.63,1.63,0,0,1,1.61-1.75,1.61,1.61,0,0,1,1.6,1.75S336,424.72,336,424.77Zm-2.76-.34h2.34a1.17,1.17,0,0,0-2.34,0Z" style="fill:#263238"></path><path d="M336.49,426l.2-.37a1.91,1.91,0,0,0,1.17.39c.63,0,.88-.22.88-.56,0-.9-2.13-.19-2.13-1.56,0-.56.46-1,1.3-1a2.11,2.11,0,0,1,1.16.32l-.19.37a1.63,1.63,0,0,0-1-.29c-.6,0-.86.24-.86.57,0,.93,2.14.23,2.14,1.55,0,.6-.5,1-1.36,1A2.14,2.14,0,0,1,336.49,426Z" style="fill:#263238"></path><path d="M339.55,426l.2-.37a1.91,1.91,0,0,0,1.17.39c.63,0,.88-.22.88-.56,0-.9-2.13-.19-2.13-1.56,0-.56.46-1,1.3-1a2.15,2.15,0,0,1,1.17.32l-.2.37a1.63,1.63,0,0,0-1-.29c-.59,0-.86.24-.86.57,0,.93,2.14.23,2.14,1.55,0,.6-.5,1-1.36,1A2.16,2.16,0,0,1,339.55,426Z" style="fill:#263238"></path><path d="M345.55,424.22v2.13h-.42v-.54a1.21,1.21,0,0,1-1.13.58c-.75,0-1.21-.41-1.21-1s.33-1,1.27-1h1.05v-.21a.83.83,0,0,0-.93-.92,1.64,1.64,0,0,0-1.1.41l-.2-.35a2.05,2.05,0,0,1,1.34-.46A1.19,1.19,0,0,1,345.55,424.22Zm-.44,1.1v-.57h-1c-.64,0-.85.27-.85.62s.31.65.83.65A1,1,0,0,0,345.11,425.32Z" style="fill:#263238"></path><path d="M349.83,422.9v3c0,1.19-.56,1.73-1.65,1.73a2.22,2.22,0,0,1-1.53-.53l.22-.36a1.88,1.88,0,0,0,1.3.47c.83,0,1.21-.4,1.21-1.25v-.44a1.45,1.45,0,0,1-1.28.67,1.61,1.61,0,0,1-1.65-1.68,1.59,1.59,0,0,1,1.65-1.66,1.45,1.45,0,0,1,1.3.69v-.67Zm-.44,1.64a1.25,1.25,0,1,0-1.25,1.27A1.21,1.21,0,0,0,349.39,424.54Z" style="fill:#263238"></path><path d="M353.94,424.77h-2.75a1.24,1.24,0,0,0,1.29,1.2,1.28,1.28,0,0,0,1-.45l.25.3a1.58,1.58,0,0,1-1.27.57,1.67,1.67,0,0,1-1.73-1.76,1.63,1.63,0,0,1,1.61-1.75,1.61,1.61,0,0,1,1.6,1.75S353.94,424.72,353.94,424.77Zm-2.75-.34h2.33a1.17,1.17,0,0,0-1.17-1.15A1.16,1.16,0,0,0,351.19,424.43Z" style="fill:#263238"></path><path d="M354.57,426a.34.34,0,0,1,.33-.35.35.35,0,0,1,.34.35.36.36,0,0,1-.34.37A.35.35,0,0,1,354.57,426Z" style="fill:#263238"></path><path d="M355.9,426a.34.34,0,0,1,.33-.35.35.35,0,0,1,.34.35.36.36,0,0,1-.34.37A.35.35,0,0,1,355.9,426Z" style="fill:#263238"></path><path d="M357.22,426a.34.34,0,1,1,.67,0,.34.34,0,1,1-.67,0Z" style="fill:#263238"></path><path d="M284.5,427.82a1.68,1.68,0,0,1-2.44.24,1.88,1.88,0,0,1-.23-2.56l3.59-4.51a1.09,1.09,0,0,1,1.58-.16,1.22,1.22,0,0,1,.15,1.66l-3,3.83h0a.63.63,0,0,1-.8,0,.72.72,0,0,1-.15-.83l2.34-3-.32-.28-2.24,2.82h0l-.11.13v0a1.14,1.14,0,0,0,.22,1.41,1,1,0,0,0,1.36,0h0l.06-.08.05,0h0l3-3.73h0a1.66,1.66,0,0,0-.23-2.23,1.5,1.5,0,0,0-2.14.16h0l-3.74,4.72h0a2.35,2.35,0,0,0,.4,3,2.09,2.09,0,0,0,2.9-.14h0l3-3.8-.33-.28Z" style="fill:#FF725E"></path><path d="M413.47,224.31c-2.07-2.79-4.35-5.74-7.58-6.77-2.37-.77-4.91-.38-7.38-.28s-5.17-.17-7-1.92c1,2.5,4,3.16,6.52,3.84a29.8,29.8,0,0,1,13.93,8.5,6.18,6.18,0,0,1,1.57,2.43,7.16,7.16,0,0,1-.13,3.25,11.23,11.23,0,0,1-1.42,4.21c-1.12,1.68-3,2.54-4.59,3.74s-3.61,3.47-3,5.42a25,25,0,0,0,11-11.53,9.91,9.91,0,0,0,1.12-4.18C416.5,228.5,415,226.31,413.47,224.31Z" style="fill:#ebebeb"></path><path d="M425.41,181.79c1,2.43-.18,5.37-2.1,7.12s-4.39,2.63-6.72,3.7-4.7,2.46-5.92,4.8c-.73,1.41-1.12,3.22-2.49,3.94a5,5,0,0,1-2.89.23c-3.57-.35-7.35,0-10.43,1.91s-5.25,5.79-4.51,9.47c-1.59-1.4-1.56-4.09-.52-6a13.7,13.7,0,0,1,4.59-4.3c7-4.72,14.09-9.52,22.14-11.65,1.8-.48,3.78-.9,5-2.35,1.4-1.66,1.41-4.17.83-6.3s-1.65-4.09-2.18-6.23a13.09,13.09,0,0,1,.58-8.06c-.75,2.41.26,5,1.49,7.2s2.75,4.3,3.13,6.81" style="fill:#ebebeb"></path><path d="M399.4,250.46a6,6,0,0,0-1.44,3.68,15.6,15.6,0,0,0,4.81-5.54A5.61,5.61,0,0,0,399.4,250.46Z" style="fill:#ebebeb"></path><path d="M372.26,287.38s-1-24.9-24.86-24.93c-25.1,0-29.95,23.33-29.95,23.33l-27.1,5.11,2.09,27,4.84,3.49-3.67.71,2.72,6-1.72,17.83,3.28,42.4,87.58-.16,8.1-95.64Z" style="fill:#455a64"></path><g style="opacity:0.30000000000000004"><path d="M372.26,287.38s-1-24.9-24.86-24.93c-25.1,0-29.95,23.33-29.95,23.33l-27.1,5.11,2.09,27,4.84,3.49-3.67.71,2.72,6-1.72,17.83,3.28,42.4,87.58-.16,8.1-95.64Z"></path></g><rect x="346.95" y="239.11" width="7.91" height="25.51" style="fill:#455a64"></rect><rect x="346.76" y="239.56" width="8.28" height="18.95" transform="translate(101.87 599.94) rotate(-90)" style="fill:#455a64"></rect><g style="opacity:0.30000000000000004"><rect x="346.95" y="239.11" width="7.91" height="25.51"></rect><rect x="346.76" y="239.56" width="8.28" height="18.95" transform="translate(101.87 599.94) rotate(-90)"></rect></g><rect x="353" y="239.11" width="7.91" height="25.51" style="fill:#455a64"></rect><rect x="352.81" y="239.56" width="8.28" height="18.95" transform="translate(107.92 605.99) rotate(-90)" style="fill:#455a64"></rect><path d="M353.25,244.84a98.1,98.1,0,0,1-11.88,0,92.95,92.95,0,0,1,11.88,0Z" style="fill:#455a64"></path><path d="M353,262.7a12.78,12.78,0,0,1-3.05.06,13,13,0,0,1-3-.31,12.11,12.11,0,0,1,3.05-.06A13,13,0,0,1,353,262.7Z" style="fill:#455a64"></path><path d="M398.17,343.14l1.71-3.38.07-.83-3.48.91,3.81-4.76.14-1.62,3.44-40.57-21.32-5.1s-1.22-25.31-25.05-25.34c-25.11,0-29.75,23.75-29.75,23.75l-27.1,5.1,7,97H396l2.82-35.43Z" style="fill:#455a64"></path><path d="M305.14,301.13s.05.51.13,1.49.2,2.42.35,4.3c.3,3.77.74,9.3,1.31,16.38,1.11,14.13,2.7,34.42,4.64,59.05l-.14-.14,79.79-.61-.17.16c.78-8.13,1.6-16.69,2.43-25.38,1.79-18.73,3.53-36.82,5.16-53.81l.14.19a7.89,7.89,0,0,1-5.18-2.6,5.25,5.25,0,0,1-1.05-2.83,7.57,7.57,0,0,1,.39-3l.12.24-14.4-3-.12,0v-.14a40.17,40.17,0,0,0-.59-5.52,27.61,27.61,0,0,0-1.41-5.23,19.85,19.85,0,0,0-5.83-8.41,19.65,19.65,0,0,0-8.67-4.07,21.9,21.9,0,0,0-4.6-.47,14.08,14.08,0,0,0-2.24.24c-.75.1-1.47.29-2.2.43a28.13,28.13,0,0,0-8,3.18,24.69,24.69,0,0,0-6.21,5.33,27.77,27.77,0,0,0-6,13.51v.09h-.08l-22,2.82.05-.09c.14.48.29.94.4,1.39l.09.68a2.94,2.94,0,0,1,.05.66l0,.64a3.75,3.75,0,0,1-.12.6,4.13,4.13,0,0,1-.43,1.08,4.66,4.66,0,0,1-1.36,1.45l-.36.25-.36.2a5.1,5.1,0,0,1-.69.31,9.64,9.64,0,0,1-2.05.56,5.22,5.22,0,0,1-.7.07s.24,0,.7-.1a10.21,10.21,0,0,0,2-.59,4.6,4.6,0,0,0,.68-.32l.36-.19.35-.25a4.89,4.89,0,0,0,1.33-1.44,4.39,4.39,0,0,0,.4-1.05,3.09,3.09,0,0,0,.12-.59c0-.21,0-.42,0-.63a2.37,2.37,0,0,0,0-.65c0-.22-.07-.44-.1-.67-.11-.44-.26-.89-.4-1.36l0-.08h.07l22-2.9-.09.09a27,27,0,0,1,2-7,26.72,26.72,0,0,1,4-6.67,24.68,24.68,0,0,1,6.27-5.4,27.91,27.91,0,0,1,8.09-3.23c.73-.14,1.47-.33,2.22-.43a14.33,14.33,0,0,1,2.28-.25,23,23,0,0,1,4.65.46,19.38,19.38,0,0,1,14.74,12.66,27.51,27.51,0,0,1,1.43,5.29,41.07,41.07,0,0,1,.6,5.57l-.13-.16,14.4,3,.19,0-.06.19a7.49,7.49,0,0,0-.37,2.83,4.93,4.93,0,0,0,1,2.64,7.64,7.64,0,0,0,5,2.47l.16,0v.17c-1.63,17-3.36,35.09-5.15,53.81-.83,8.7-1.65,17.26-2.43,25.39l0,.17h-.16l-79.79.54h-.14v-.14c-1.87-24.67-3.42-45-4.5-59.16-.53-7.06-.94-12.58-1.23-16.35-.13-1.87-.24-3.3-.31-4.27S305.14,301.13,305.14,301.13Z" style="fill:#f5f5f5"></path><path d="M314.26,314.52a4.8,4.8,0,0,1,.46,1,6.77,6.77,0,0,1,.37,1.21,3.78,3.78,0,0,1,0,1.71,2.61,2.61,0,0,1-.43.91,1.59,1.59,0,0,1-.92.6,1.79,1.79,0,0,1-1.85-1.32,11,11,0,0,1-.42-2.56c-.09-.89-.18-1.8-.27-2.74-.2-2.06-.38-4-.54-5.75l-.08-.79.37.68c1.11,2,1.95,3.8,2.5,5.06.28.63.49,1.13.63,1.48a3.69,3.69,0,0,1,.18.54,2.07,2.07,0,0,1-.28-.5l-.7-1.43c-.6-1.23-1.48-3-2.6-5l.29-.1c.18,1.74.37,3.69.58,5.74.09.94.18,1.86.26,2.74a11.52,11.52,0,0,0,.38,2.48,1.52,1.52,0,0,0,1.5,1.15,1.69,1.69,0,0,0,1.16-1.29,4.91,4.91,0,0,0-.26-2.79A6.78,6.78,0,0,1,314.26,314.52Z" style="fill:#263238"></path><path d="M324.86,302.18a3.75,3.75,0,0,1,1,.06,5.46,5.46,0,0,1,1.19.27,3.6,3.6,0,0,1,1.41.85,2.63,2.63,0,0,1,.54.85,1.74,1.74,0,0,1,0,1.13,1.77,1.77,0,0,1-2,1,9.51,9.51,0,0,1-2.33-.9l-2.4-1.12-5-2.38-.69-.33h.75c2.23,0,4.11.13,5.43.26.66.06,1.18.12,1.53.17a2,2,0,0,1,.55.11,2,2,0,0,1-.55,0l-1.54-.08c-1.32-.07-3.2-.15-5.42-.13l.06-.32,5,2.35,2.4,1.13a10.29,10.29,0,0,0,2.24.9,1.48,1.48,0,0,0,1.69-.79,1.76,1.76,0,0,0-.48-1.7,4.52,4.52,0,0,0-2.44-1.16A6.8,6.8,0,0,1,324.86,302.18Z" style="fill:#263238"></path><path d="M323.67,311a1.88,1.88,0,0,1,.36.23c.24.17.57.41,1,.75a11.17,11.17,0,0,1,1.42,1.38,6.18,6.18,0,0,1,1.27,2.35,4,4,0,0,1,.08,1.6,2.56,2.56,0,0,1-.79,1.54,2.18,2.18,0,0,1-1.72.49,3.27,3.27,0,0,1-1.73-.79,8.29,8.29,0,0,1-1.34-1.49c-.39-.55-.79-1.11-1.19-1.69-.81-1.14-1.62-2.34-2.45-3.57-1.83-2.72-3.55-5.3-5.13-7.53l-.47-.66.68.42c3.08,1.88,5.59,3.62,7.33,4.89.87.63,1.55,1.15,2,1.51l.52.41c.12.1.18.16.17.16a4.32,4.32,0,0,1-.74-.49c-.52-.35-1.2-.83-2.06-1.43-1.76-1.22-4.3-2.91-7.38-4.76l.21-.25c1.6,2.23,3.33,4.8,5.16,7.51.83,1.23,1.65,2.42,2.44,3.58a18.49,18.49,0,0,0,2.45,3.12,2.4,2.4,0,0,0,3.07.33,2.28,2.28,0,0,0,.7-1.35,3.72,3.72,0,0,0,0-1.49,6,6,0,0,0-1.18-2.27,10.8,10.8,0,0,0-1.36-1.4c-.4-.36-.72-.62-.94-.81A1.66,1.66,0,0,1,323.67,311Z" style="fill:#263238"></path><path d="M368.19,287.08a12.28,12.28,0,0,0-.6-1.45,12.07,12.07,0,0,0-10.18-6.76,14.13,14.13,0,0,0-5.32.72,15.55,15.55,0,0,0-7.62,5.26,10.83,10.83,0,0,0-2,9.12,5.17,5.17,0,0,0,7.71,3.72c.26,2.35-.84,4.69-.07,6.76a2.17,2.17,0,0,0,1.69,1.16c.71.19,1.62-.4,1.51-1.16a2,2,0,0,0,3.94-.14,1.62,1.62,0,0,0,2.13,1.31,2.84,2.84,0,0,0,1.63-2.28,10.56,10.56,0,0,0-.38-2.88,6.86,6.86,0,0,1,.44-3.07c2.38.88,5.19-.43,6.54-2.66A9.24,9.24,0,0,0,368.19,287.08Zm-17.26,7.16a3.36,3.36,0,0,1-2,.63,3.09,3.09,0,0,1-2.54-3,5,5,0,0,1,1.77-3.81,7.66,7.66,0,0,1,3-1.62,1.58,1.58,0,0,1,1.79.4,3.26,3.26,0,0,1,.73,2.26A6.24,6.24,0,0,1,350.93,294.24Zm6.44,4c-.25.08-.5-.12-.67-.32a5.16,5.16,0,0,1-1-1.8,6.24,6.24,0,0,1-1.19,2.23c-.17.2-.48.4-.66.2a.53.53,0,0,1,0-.43,30,30,0,0,1,1.89-6.68h.08c.7,1.88,1.33,3.79,1.86,5.73a1.84,1.84,0,0,1,.09.61A.54.54,0,0,1,357.37,298.26Zm5.43-4.11a3.36,3.36,0,0,1-2-.63,6.25,6.25,0,0,1-2.73-5.14,3.31,3.31,0,0,1,.73-2.26,1.58,1.58,0,0,1,1.79-.4,7.54,7.54,0,0,1,3,1.62,5,5,0,0,1,1.77,3.81A3.09,3.09,0,0,1,362.8,294.15Z" style="fill:#fafafa"></path><path d="M372.09,317.16c0,.1-7.44.19-16.61.19s-16.6-.09-16.6-.19,7.43-.18,16.6-.18S372.09,317.06,372.09,317.16Z" style="fill:#f5f5f5"></path><path d="M389.88,328.1c0,.1-15.4.19-34.4.19s-34.4-.09-34.4-.19,15.4-.19,34.4-.19S389.88,328,389.88,328.1Z" style="fill:#263238"></path><path d="M381.87,334.06c0,.11-12.58.19-28.1.19s-28.1-.08-28.1-.19,12.58-.18,28.1-.18S381.87,334,381.87,334.06Z" style="fill:#263238"></path><path d="M381.22,357.42c0,.11-12.34.19-27.56.19s-27.56-.08-27.56-.19,12.33-.18,27.56-.18S381.22,357.32,381.22,357.42Z" style="fill:#263238"></path><path d="M300.43,290.89a27.21,27.21,0,0,1-5,.23c-1.39,0-2.64,0-3.55.08a8,8,0,0,1-1.47,0,17.76,17.76,0,0,1,5-.48c1.39,0,2.65,0,3.56,0A5.71,5.71,0,0,1,300.43,290.89Z" style="fill:#455a64"></path><path d="M327.72,285.29a7.38,7.38,0,0,1-1.53.09c-.94,0-2.24.06-3.68.13s-2.73.18-3.67.26a7.1,7.1,0,0,1-1.53.07,5.48,5.48,0,0,1,1.5-.33c.94-.14,2.24-.29,3.68-.37s2.75-.06,3.7,0A5.46,5.46,0,0,1,327.72,285.29Z" style="fill:#455a64"></path><g style="opacity:0.30000000000000004"><polygon points="304.24 343.49 315.07 345.26 304.24 348.45 304.24 343.49"></polygon></g><path d="M400.9,288.37c-1.17-1.74-3.48-2-5.51-2.14q-.3-6.36-.58-12.72a4.56,4.56,0,0,1,.6-3.09c.32-.39.79-.7.9-1.2.19-.9-.86-1.49-1.72-1.71a26.92,26.92,0,0,0-6-.82,3.29,3.29,0,0,0-2.66.79,3.8,3.8,0,0,0-.71,2.13q-.78,6.11-1.55,12.21a3.12,3.12,0,0,0-2.92-2.17c.28,1.93.92,3.79,1.21,5.72.25,1.69-.54,2.48,2.3,2.78l2.7.71a2.88,2.88,0,0,1,.08,1.14c-.12,1.74-.25,3.48-.37,5.22a2.59,2.59,0,0,0,.13,1.3.81.81,0,0,0,1,.46,1.28,1.28,0,0,0,.46-1q.38-2.73.76-5.46a1.58,1.58,0,0,0,1.16,1.19,2,2,0,0,0,2.08-1.47l.09,0a2.87,2.87,0,0,0,1.42,3,2.6,2.6,0,0,0,3.15-.73,14.26,14.26,0,0,0,1.1,7.07c.41,1,1.3,2,2.25,1.66.79-.31,1-1.39,1-2.27.1-2,.21-4.08.31-6.11C401.72,291.36,401.76,289.66,400.9,288.37Z" style="fill:#fafafa"></path><path d="M401.66,291a4.6,4.6,0,0,0-2.22-3.82,5.91,5.91,0,0,0-2.73-.73c-1-.06-2-.12-2.9-.08a23.51,23.51,0,0,0-2.36.21c-1.34.2-2.16.43-2.17.37a1.83,1.83,0,0,1,.55-.23c.37-.11.9-.26,1.58-.4a17.81,17.81,0,0,1,2.38-.29,24.47,24.47,0,0,1,2.94.05,6,6,0,0,1,2.87.8,4.92,4.92,0,0,1,1.68,1.85,3.8,3.8,0,0,1,.45,1.65A1.33,1.33,0,0,1,401.66,291Z" style="fill:#263238"></path><path d="M389.36,284.87a4.94,4.94,0,0,0-.81-.88,2.2,2.2,0,0,0-3.07.5l-.2.28-.1-.32a10.41,10.41,0,0,0-1.69-2.89s.34.17.75.63a6.09,6.09,0,0,1,1.26,2.14l-.3-.05a2.56,2.56,0,0,1,.61-.62,2.4,2.4,0,0,1,1.63-.44,2.34,2.34,0,0,1,1.26.56A1.66,1.66,0,0,1,389.36,284.87Z" style="fill:#263238"></path><path d="M395.41,268.33a3.52,3.52,0,0,1-1.19.72,7.81,7.81,0,0,1-3.26.6,7.7,7.7,0,0,1-3.22-.81,3.46,3.46,0,0,1-1.14-.79,11.57,11.57,0,0,1,1.24.55,8.85,8.85,0,0,0,6.3.2A9.89,9.89,0,0,1,395.41,268.33Z" style="fill:#263238"></path><path d="M319.34,373.47c.08.07-.71,1.06-1.37,2.48s-.93,2.68-1,2.66a5.94,5.94,0,0,1,.71-2.82A5.69,5.69,0,0,1,319.34,373.47Z" style="fill:#263238"></path><path d="M313.05,356.69a6.76,6.76,0,0,1,.61,3.17A5.84,5.84,0,0,1,313,363a28.43,28.43,0,0,0,.29-3.15C313.31,358.11,313,356.72,313.05,356.69Z" style="fill:#263238"></path><path d="M325.26,349.16c0,.11-1.26.41-2.61,1.28a13.63,13.63,0,0,0-2.18,1.93,1.85,1.85,0,0,1,.42-.8,5.81,5.81,0,0,1,1.58-1.45A5.05,5.05,0,0,1,325.26,349.16Z" style="fill:#263238"></path><path d="M315.68,338.06a5.84,5.84,0,0,1,2.5,1.12,6.05,6.05,0,0,1,2,1.9c-.07.08-1-.76-2.21-1.59S315.65,338.16,315.68,338.06Z" style="fill:#263238"></path><path d="M318.82,329.08a7.66,7.66,0,0,0-2.05,1,4.42,4.42,0,0,0-1.07,1.22c-.22.37-.3.63-.36.62s0-.31.13-.74a3.58,3.58,0,0,1,1.08-1.4,3.74,3.74,0,0,1,1.56-.75C318.55,329,318.82,329,318.82,329.08Z" style="fill:#263238"></path><path d="M317.59,326.25s-.21.14-.55.47a5,5,0,0,0-1.16,1.71,7.26,7.26,0,0,0-.46,3.29,10.2,10.2,0,0,0,1.43,4.14c.8,1.43,1.9,2.84,3,4.43a13.56,13.56,0,0,1,2.49,5.71,8.27,8.27,0,0,1-.29,3.41,12.68,12.68,0,0,1-1.52,3.2,27.21,27.21,0,0,1-2.19,2.87c-.79.93-1.62,1.83-2.39,2.81a13,13,0,0,0-3.11,6.43,7.91,7.91,0,0,0,.4,3.39,20.21,20.21,0,0,0,1.35,3,18.39,18.39,0,0,1,2.33,5.79,9.15,9.15,0,0,1-.9,5.36,8.1,8.1,0,0,1-6,4.43,7.25,7.25,0,0,1-2.05,0,5.15,5.15,0,0,1-.71-.13,9.61,9.61,0,0,0,2.74-.06,8.06,8.06,0,0,0,5.81-4.41,9,9,0,0,0,.83-5.2,18.32,18.32,0,0,0-2.32-5.66,21,21,0,0,1-1.39-3.08,8.28,8.28,0,0,1-.43-3.55,13.3,13.3,0,0,1,3.19-6.63c.78-1,1.62-1.89,2.4-2.81a26.26,26.26,0,0,0,2.16-2.84,12.22,12.22,0,0,0,1.49-3.09A8.11,8.11,0,0,0,322,346a13.38,13.38,0,0,0-2.41-5.57c-1.08-1.59-2.18-3-3-4.48a10.34,10.34,0,0,1-1.41-4.26,7.33,7.33,0,0,1,.53-3.36,4.78,4.78,0,0,1,1.24-1.71A2.83,2.83,0,0,1,317.59,326.25Z" style="fill:#263238"></path><path d="M349.06,363.68a8.27,8.27,0,0,0-1.5-.67,6.09,6.09,0,0,0-4.3.33,5.84,5.84,0,0,0-2.31,2,35.65,35.65,0,0,0-1.78,3.19,7.23,7.23,0,0,1-2.72,3,5.8,5.8,0,0,1-4.2.6,9.42,9.42,0,0,1-3.69-2.2,13.82,13.82,0,0,0-3.21-2.26,7.12,7.12,0,0,0-6.29.29,7.88,7.88,0,0,0-3.09,3.21,12.51,12.51,0,0,0-.65,1.57,1.36,1.36,0,0,1,.08-.44,7.34,7.34,0,0,1,.45-1.19,7.8,7.8,0,0,1,3.09-3.38,7.34,7.34,0,0,1,6.54-.37,13.69,13.69,0,0,1,3.29,2.28,9.33,9.33,0,0,0,3.56,2.13,5.53,5.53,0,0,0,4-.56,6.91,6.91,0,0,0,2.6-2.87,30.18,30.18,0,0,1,1.83-3.2,6,6,0,0,1,6.88-2.27A4.12,4.12,0,0,1,349.06,363.68Z" style="fill:#263238"></path><path d="M315.65,366.47a7.61,7.61,0,0,1-.34,5.92c-.11,0,.33-1.31.41-2.95S315.54,366.5,315.65,366.47Z" style="fill:#263238"></path><path d="M324.57,370.5a8.12,8.12,0,0,0-1.45-2.25,7.62,7.62,0,0,0-2.27-1.33c0-.05.31-.07.8.06a4.21,4.21,0,0,1,1.71,1,4.37,4.37,0,0,1,1.08,1.7C324.61,370.17,324.61,370.49,324.57,370.5Z" style="fill:#263238"></path><path d="M332.61,368.61s.06.24-.06.61a2.65,2.65,0,0,1-.83,1.18,2.4,2.4,0,0,1-1.29.57c-.37,0-.59,0-.58-.08a5.33,5.33,0,0,0,1.65-.78A5.78,5.78,0,0,0,332.61,368.61Z" style="fill:#263238"></path><path d="M343.2,370.7c-.05,0-.23-.22-.6-.54a4,4,0,0,0-1.63-.83,3.89,3.89,0,0,0-1.81,0c-.45.12-.72.26-.75.21s.2-.27.68-.46a3.27,3.27,0,0,1,2-.13,3.43,3.43,0,0,1,1.72,1C343.12,370.36,343.23,370.68,343.2,370.7Z" style="fill:#263238"></path><path d="M343.65,361c.09,0,0,.61-.18,1.29s-.42,1.21-.51,1.18,0-.6.17-1.28S343.55,360.94,343.65,361Z" style="fill:#263238"></path><path d="M367.28,352.1c0,.1-5.45.18-12.17.18S343,352.2,343,352.1s5.44-.19,12.16-.19S367.28,352,367.28,352.1Z" style="fill:#263238"></path><path d="M391.34,266.34a2.09,2.09,0,0,0,2.35-.81,9,9,0,0,0,1.18-2.48,4.55,4.55,0,0,1,1.48-2.25,12.53,12.53,0,0,1,1.88-.81,4.42,4.42,0,0,0,2.45-4,2.35,2.35,0,0,1-1.44,1.9,7.64,7.64,0,0,1-2.38.48,4.83,4.83,0,0,0-2.32.72c-.82.59-1.29,1.62-2.09,2.25-.56.44-1.23.3-1.87,1-.48.54-1.34,2.88.71,3.93" style="fill:#FF725E"></path><g style="opacity:0.30000000000000004"><path d="M391.34,266.34a2.09,2.09,0,0,0,2.35-.81,9,9,0,0,0,1.18-2.48,4.55,4.55,0,0,1,1.48-2.25,12.53,12.53,0,0,1,1.88-.81,4.42,4.42,0,0,0,2.45-4,2.35,2.35,0,0,1-1.44,1.9,7.64,7.64,0,0,1-2.38.48,4.83,4.83,0,0,0-2.32.72c-.82.59-1.29,1.62-2.09,2.25-.56.44-1.23.3-1.87,1-.48.54-1.34,2.88.71,3.93" style="fill:#fff"></path></g><path d="M391.81,265.38c.07.07-.2.5-.41,1.08s-.29,1.08-.39,1.08-.18-.57.06-1.22S391.74,265.31,391.81,265.38Z" style="fill:#263238"></path><path d="M270.46,384.65q-.21-9.4-.41-18.8a46.35,46.35,0,0,1,17.13,17.56l-4.41-16,10.5,13.77-.36-14.5a36.1,36.1,0,0,0,9.35,13.43A27.13,27.13,0,0,1,305.9,367l6.15,13.5q1.41-6,2.81-12l4.8,13.16q1.71-6.16,3.4-12.34L327.89,381l4.32-13.9,8.75,13.5a17.45,17.45,0,0,0-.72-13.13l9.81,10.67q-1.82-5.7-3.62-11.41l10,12.86a32,32,0,0,0-1.73-12.87L360.81,379c0-5.54,2.69-11,6.79-13.75q.48,8.5,1,17L376,366.18q1.09,8.67,2.18,17.34a34.72,34.72,0,0,1,8.95-17.62q1,6.64,2,13.28a39.07,39.07,0,0,1,9.07-15.39l4.84,13.51,6.12-7L413.05,388l-116,9.22Z" style="fill:#263238"></path><path d="M390.32,339.81s-5.22-3.1-3.64-7.32,2.78-4.76,2.78-4.76l-2.58-1a16.65,16.65,0,0,0-4.49,9.12,29.37,29.37,0,0,0,0,7.87Z" style="fill:#263238"></path><path d="M382.89,338.72l-.15.13a2.29,2.29,0,0,1-.48.29,3.12,3.12,0,0,1-2,.22,3.28,3.28,0,0,1-2.28-2,3.39,3.39,0,0,1-.21-1.88,2.37,2.37,0,0,1,.4-.94,1.48,1.48,0,0,1,.86-.6,1.42,1.42,0,0,1,1,.18,1.09,1.09,0,0,1,.53.9,1.32,1.32,0,0,1-1.27,1.29,2.12,2.12,0,0,1-1.52-.66,3,3,0,0,1-.73-1.28,3.17,3.17,0,0,1,.14-2.12,2.16,2.16,0,0,1,.29-.49l.13-.15s-.16.23-.34.68a3.22,3.22,0,0,0-.05,2,2.79,2.79,0,0,0,.7,1.18,1.91,1.91,0,0,0,1.37.58,1.11,1.11,0,0,0,1.05-1.05,1,1,0,0,0-1.27-.84,1.27,1.27,0,0,0-.71.5,2.33,2.33,0,0,0-.36.84,3.26,3.26,0,0,0,2.3,3.66,3.2,3.2,0,0,0,1.94-.14C382.66,338.87,382.87,338.69,382.89,338.72Z" style="fill:#263238"></path><path d="M420.61,362.78c-.51-11.18-6.24-16.5-10.05-18.81-4.2-3.38-9.46-5.78-11.1-4.07-1.36-2.62-5.08-.54-5.08-.54,0,.3-1.89-1.91-5.33-1.89-2.22,0-4.24.25-5.58,2.11-2.21-.94-3.74-.59-5.55,1-.47.43-.86,1.05-1.08,1.14s-.75-.45-1.4-.38a7.65,7.65,0,0,0-3.88,1.54c-1.51,1-10.44,7.54-10.37,21.48.07,11.69,10,19.61,19.43,20.32s23.95.21,23.95.21S421.35,379.36,420.61,362.78Z" style="fill:#FF725E"></path><path d="M382.21,384.82l-.12,0-.34-.15c-.29-.15-.75-.31-1.29-.62a20.86,20.86,0,0,1-4.31-3.05c-.43-.36-.82-.81-1.26-1.24s-.84-.94-1.26-1.46a24.89,24.89,0,0,1-2.3-3.59,26,26,0,0,1-1.77-4.41,28.08,28.08,0,0,1-.93-5,24.87,24.87,0,0,1,1.27-9.78,44.33,44.33,0,0,1,3.22-7.34c1.07-2,2-3.58,2.67-4.67l.77-1.25.2-.32.08-.1-.06.12-.18.33-.73,1.27c-.63,1.1-1.55,2.69-2.6,4.71a44.77,44.77,0,0,0-3.16,7.33,24.77,24.77,0,0,0-1.24,9.67,28.08,28.08,0,0,0,.92,5,26.12,26.12,0,0,0,1.73,4.38,24.57,24.57,0,0,0,2.27,3.57c.41.51.82,1,1.23,1.46s.81.88,1.24,1.24a21.82,21.82,0,0,0,4.25,3.09c.53.32,1,.5,1.26.66l.33.17Z" style="fill:#263238"></path><path d="M389.05,385.06a7.93,7.93,0,0,1-1.54-1.05,15.31,15.31,0,0,1-3.3-4,28.92,28.92,0,0,1-3-7.12,39.34,39.34,0,0,1-1.36-9.44,57.31,57.31,0,0,1,.59-9.52c.41-2.91.94-5.49,1.42-7.66s.9-3.89,1.2-5.09l.36-1.38.09-.36,0-.12s0,.05,0,.13l-.08.36c-.07.34-.18.8-.31,1.39-.27,1.21-.67,2.95-1.13,5.11s-1,4.75-1.36,7.65a58.14,58.14,0,0,0-.57,9.48,40.41,40.41,0,0,0,1.33,9.38,29.36,29.36,0,0,0,2.94,7.1,16,16,0,0,0,3.22,4,11,11,0,0,0,1.09.85l.29.2Z" style="fill:#263238"></path><path d="M394.23,339.17l.06.1.16.32c.13.28.32.69.55,1.23a32.24,32.24,0,0,1,1.55,4.75,33.25,33.25,0,0,1,.94,7.37A86.6,86.6,0,0,1,397,362c-.13,1.6-.26,3.17-.33,4.69s-.1,3-.15,4.38a67.79,67.79,0,0,1-.55,7.42,26.28,26.28,0,0,1-1.13,4.87,13.46,13.46,0,0,1-.49,1.27l-.14.32c0,.07-.05.11-.06.11a.48.48,0,0,1,0-.12l.12-.33c.1-.29.28-.71.44-1.28a27.59,27.59,0,0,0,1-4.87,70.73,70.73,0,0,0,.5-7.39c0-1.4.07-2.87.14-4.39s.19-3.1.32-4.71a89.07,89.07,0,0,0,.47-9.06,33.9,33.9,0,0,0-2.36-12.09c-.21-.55-.38-1-.51-1.25s-.1-.24-.13-.33A.82.82,0,0,1,394.23,339.17Z" style="fill:#263238"></path><path d="M399.52,339.94l.13,0,.37.13c.16.06.36.14.59.25s.5.22.79.37a17.94,17.94,0,0,1,4.52,3.3,21.93,21.93,0,0,1,4.69,7,29,29,0,0,1,2.23,10.19,30.61,30.61,0,0,1-1.34,10.36,27.32,27.32,0,0,1-3.68,7.64,23,23,0,0,1-3.75,4.22c-.49.45-.92.74-1.19,1l-.32.24-.11.07s0,0,.09-.1l.31-.25c.26-.24.68-.53,1.16-1a24.41,24.41,0,0,0,3.67-4.26,27.45,27.45,0,0,0,3.61-7.6,31,31,0,0,0,1.31-10.28,29,29,0,0,0-2.2-10.11,21.77,21.77,0,0,0-4.6-7,18.49,18.49,0,0,0-4.44-3.34q-.44-.24-.78-.39l-.58-.27-.36-.16Z" style="fill:#263238"></path><g style="opacity:0.30000000000000004"><path d="M372.54,349.4c-3.27,3.35-5.3,9.05-5.29,14.28s1.88,10.59,5.63,14.05c-2.55-5.31-4.59-10.05-4-17.31.32-3.89,1.92-7.11,3.65-11"></path></g><path d="M368.81,346.27s-.43.59-1.12,1.53a31.38,31.38,0,0,0-4.18,8.11c-.38,1.12-.57,1.83-.61,1.82a2,2,0,0,1,.09-.51c.07-.33.19-.8.36-1.36a25.7,25.7,0,0,1,1.75-4.29,26.24,26.24,0,0,1,2.46-3.88c.36-.46.67-.82.89-1.06A2.36,2.36,0,0,1,368.81,346.27Z" style="fill:#fff"></path><path d="M369.63,361.58a16,16,0,0,1,.89-5.88c.06,0-.24,1.31-.48,2.93S369.7,361.58,369.63,361.58Z" style="fill:#fff"></path><path d="M371.22,352.77c.06,0-.06.38-.2.79s-.23.75-.3.74-.06-.38.08-.82S371.16,352.74,371.22,352.77Z" style="fill:#fff"></path><g style="opacity:0.30000000000000004"><path d="M388.06,361.78a1,1,0,0,1-.85-.32,6,6,0,0,1-.85-1,5,5,0,0,0-.86-.9,1.08,1.08,0,0,0-.35-.2c-.09,0-.13,0-.23-.05a2.85,2.85,0,0,0-.81,0,3.2,3.2,0,0,0-1,.44c-.67.41-1.27.93-1.83.8a.94.94,0,0,1-.64-.68,2.91,2.91,0,0,1,0-1.69,4.26,4.26,0,0,1,1.48-2.21,4.33,4.33,0,0,1,3.37-.9,4.13,4.13,0,0,1,1.86.79,4.5,4.5,0,0,1,1.14,1.33,4.71,4.71,0,0,1,.62,2.46,3.28,3.28,0,0,1-.36,1.49A1,1,0,0,1,388.06,361.78Z"></path></g><g style="opacity:0.30000000000000004"><path d="M405.74,359.15a1,1,0,0,1-.9.11,6.89,6.89,0,0,1-1.17-.48,4.65,4.65,0,0,0-1.15-.42,1.46,1.46,0,0,0-.4,0,2,2,0,0,0-.23.07,2.31,2.31,0,0,0-.71.39,3.55,3.55,0,0,0-.7.84c-.43.68-.75,1.42-1.31,1.57a.92.92,0,0,1-.87-.32,3,3,0,0,1-.69-1.52,4.47,4.47,0,0,1,.4-2.67,4.59,4.59,0,0,1,2.65-2.36,4.14,4.14,0,0,1,2-.14,4.27,4.27,0,0,1,1.59.67,4.59,4.59,0,0,1,1.59,1.92,3.34,3.34,0,0,1,.29,1.51A1.09,1.09,0,0,1,405.74,359.15Z"></path></g><g style="opacity:0.30000000000000004"><path d="M392.38,367.5c-.08.73-.17,1.47-.25,2.2a27.74,27.74,0,0,1-4.55-.28c-.07-.86-.14-1.71-.22-2.56a43.89,43.89,0,0,1-12.42-5.13,24.7,24.7,0,0,0,6.78,7.85l.11-1.39,3,.25-.22,2.93a16.88,16.88,0,0,0,9.66,1.66,22.69,22.69,0,0,0,3.69-.74l.26-3.51,3,.24-.15,2a12.22,12.22,0,0,0,6.74-9.31S400.74,367.68,392.38,367.5Z"></path></g><path d="M392.38,366.71c-.08.73-.17,1.47-.25,2.2a27.74,27.74,0,0,1-4.55-.28l-.22-2.56a43.89,43.89,0,0,1-12.42-5.13,24.7,24.7,0,0,0,6.78,7.85l.11-1.39,3,.25-.22,2.93a17,17,0,0,0,9.66,1.66,22.69,22.69,0,0,0,3.69-.74l.26-3.51,3,.24-.15,2a12.24,12.24,0,0,0,6.74-9.32S400.74,366.89,392.38,366.71Z" style="fill:#263238"></path><path d="M388.06,360.28a1.09,1.09,0,0,1-.85-.32,6.93,6.93,0,0,1-.85-1,4.75,4.75,0,0,0-.86-.91,1,1,0,0,0-.35-.19,1.55,1.55,0,0,0-.23-.05,2.27,2.27,0,0,0-.81,0,3.41,3.41,0,0,0-1,.43c-.67.42-1.27.93-1.83.81a1,1,0,0,1-.64-.69,2.88,2.88,0,0,1,0-1.68,4.28,4.28,0,0,1,1.48-2.22,4.4,4.4,0,0,1,3.37-.9,4.14,4.14,0,0,1,1.86.8,4.6,4.6,0,0,1,1.14,1.32,4.73,4.73,0,0,1,.62,2.46,3.25,3.25,0,0,1-.36,1.49A1.09,1.09,0,0,1,388.06,360.28Z" style="fill:#263238"></path><path d="M405.74,357.65a1,1,0,0,1-.9.1,5.57,5.57,0,0,1-1.17-.48,4.65,4.65,0,0,0-1.15-.42,1.1,1.1,0,0,0-.4,0,1,1,0,0,0-.23.06,2.6,2.6,0,0,0-.71.4,3.35,3.35,0,0,0-.7.84c-.43.68-.75,1.42-1.31,1.56a.9.9,0,0,1-.87-.32,3,3,0,0,1-.69-1.52,4.44,4.44,0,0,1,.4-2.66,4.52,4.52,0,0,1,2.65-2.36,3.91,3.91,0,0,1,2-.14,4.26,4.26,0,0,1,1.59.66,4.55,4.55,0,0,1,1.59,1.93,3.3,3.3,0,0,1,.29,1.5A1.11,1.11,0,0,1,405.74,357.65Z" style="fill:#263238"></path><path d="M382.46,351.35a4,4,0,0,1,0-1,23.82,23.82,0,0,1,.27-2.45,24.27,24.27,0,0,1,.52-2.42,4.09,4.09,0,0,1,.32-1c.07,0-.29,1.54-.6,3.43S382.53,351.35,382.46,351.35Z" style="fill:#fff"></path><path d="M398.13,365.08a3.64,3.64,0,0,1-.07-1.28,3.39,3.39,0,0,1,.17-1.27,3.57,3.57,0,0,1,.07,1.28A3.26,3.26,0,0,1,398.13,365.08Z" style="fill:#fff"></path><ellipse cx="322.51" cy="195.34" rx="38.89" ry="40.73" style="fill:#FF725E"></ellipse><path d="M329.9,220.94c-5.53.59-11.3,1.15-16.47-1-1.22-.5-2.74-1.1-3.69-.16-.64.62-.71,1.7-1.36,2.3-1,.93-2.6.14-3.47-.92s-1.56-2.41-2.82-2.88c-1.45-.54-3.1.42-3.92,1.79a11.22,11.22,0,0,0-1.18,4.64,7.9,7.9,0,0,0-3.48-5.19,4.93,4.93,0,0,0-5.81.5,4.23,4.23,0,0,0-.18,5.8l4.72,4.44-.59.28A234.34,234.34,0,0,0,329.9,220.94Z" style="fill:#263238"></path><path d="M365.86,177.73l-2.72-3.43a28.16,28.16,0,0,0-2-7.73c-1.14-2.39-3.12-4.5-5.62-5.06a5.27,5.27,0,0,0-6.16,3.42c-1.87-2.27-5.78-.76-6.95,2s-.5,5.9.19,8.81a4.28,4.28,0,0,0-5.57-1.16,4.73,4.73,0,0,0-1.72,5.67L320,187.09A443.08,443.08,0,0,0,365.86,177.73Z" style="fill:#263238"></path><g style="opacity:0.30000000000000004"><ellipse cx="299.67" cy="197.78" rx="9.28" ry="9.72"></ellipse></g><g style="opacity:0.2"><ellipse cx="351.59" cy="203.67" rx="4.64" ry="4.86"></ellipse></g><g style="opacity:0.30000000000000004"><path d="M302.92,179.92a4.18,4.18,0,1,1-4.18-4.37A4.28,4.28,0,0,1,302.92,179.92Z"></path></g><path d="M299,207a10.94,10.94,0,0,0,4.1-1,9.22,9.22,0,0,0,3.41-3,9.38,9.38,0,0,0,1.6-5.26,9.53,9.53,0,0,0-1.52-5.28,9.18,9.18,0,0,0-3.37-3,10.79,10.79,0,0,0-4.08-1.09s.11,0,.3-.06a7.69,7.69,0,0,1,.87,0,8.67,8.67,0,0,1,3.08.83,9.29,9.29,0,0,1,3.6,3.08,10,10,0,0,1-.09,11.08,9.17,9.17,0,0,1-3.64,3,8.29,8.29,0,0,1-3.09.78,7.23,7.23,0,0,1-.87,0Q299,207,299,207Z" style="fill:#263238"></path><path d="M309.09,207.56c-.07,0,.56-1.13,1.34-3a19.83,19.83,0,0,0,1.66-7.61,12.71,12.71,0,0,0-2.3-7.33,17.34,17.34,0,0,0-2.26-2.33,2.72,2.72,0,0,1,.78.43,8.21,8.21,0,0,1,1.77,1.68,12.33,12.33,0,0,1,2.53,7.54,18.42,18.42,0,0,1-1.84,7.77,21.13,21.13,0,0,1-1.15,2.13C309.31,207.33,309.12,207.58,309.09,207.56Z" style="fill:#263238"></path><path d="M298.74,175.9a2.65,2.65,0,0,1,2.05.53,4.25,4.25,0,0,1,1.54,1.77,4.41,4.41,0,0,1,.26,2.87A4.33,4.33,0,0,1,301,183.5a4,4,0,0,1-2.22.78,2.71,2.71,0,0,1-2-.58,6.54,6.54,0,0,0,2,.21,3.8,3.8,0,0,0,1.95-.79,3.94,3.94,0,0,0,1.34-2.17,4,4,0,0,0-.19-2.55,4.11,4.11,0,0,0-1.31-1.67A6.34,6.34,0,0,0,298.74,175.9Z" style="fill:#263238"></path><path d="M352.31,208.26a6.19,6.19,0,0,0,2.23-1.52,5,5,0,0,0,1.18-2.59,4.63,4.63,0,0,0-.89-3.31A4.3,4.3,0,0,0,352,199a4.43,4.43,0,0,0-2.76.59,6.35,6.35,0,0,0-1.92,1.9s0-.28.28-.71a4.49,4.49,0,0,1,1.44-1.5,4.76,4.76,0,0,1,3-.76,4.7,4.7,0,0,1,3.24,2,5,5,0,0,1,.94,3.68,5.16,5.16,0,0,1-1.38,2.78,4.47,4.47,0,0,1-1.75,1.14A1.55,1.55,0,0,1,352.31,208.26Z" style="fill:#263238"></path><path d="M352.92,164.93s19.87-10.76,27.8-1.83l.82-5,2.2,3.65,3.66-1.3s-.56-5.2-.28-4.38,2.92,3.39,2.92,3.39,4.79-12.89,21.91-12.71c0,0-10.41,2-8.93,11.09,0,0-7.86-.45-6.21,7.15a6.94,6.94,0,0,0-2.93,8,38.54,38.54,0,0,0-4.87-2.25c-.39,0-2.92,5.18-2.92,5.18s-1.73-7-7.6-4.8c0,0-1.15-8.08-9.77-2.43C368.72,168.77,369.2,161.08,352.92,164.93Z" style="fill:#455a64"></path><path d="M285.05,242.29s13.67,1,10.94,17.66l2.56-5.33,0,3.81,2.15-3.52-1.33,7.23s5.21-13.53,16.88-10.82c0,0-7.15,1.23-6.72,8.5,0,0-4-.63-6.59,4.71a10.65,10.65,0,0,0-7.53,5.08s.61-8.6-5.69-10.42c0,0,4.49-5.68-.72-9.53C289,249.66,289.84,245.51,285.05,242.29Z" style="fill:#455a64"></path><path d="M296.72,379.88s-.07-.06-.17-.19l-.47-.61-1.75-2.36L288,368l.36-.14c.46,3.71,1,8.07,1.58,12.83l.1.77-.52-.58a58.37,58.37,0,0,1-8-11.44H282l-.13.26a31.59,31.59,0,0,0-3.55,13.41l0,.78-.42-.65a70.19,70.19,0,0,1-6.62-13.18l.36,0a30,30,0,0,0-1,9.43c.06,1.12.17,2,.24,2.58a6,6,0,0,1,.1.9.66.66,0,0,1-.06-.22l-.15-.66c-.1-.59-.24-1.46-.34-2.59a28.79,28.79,0,0,1,.83-9.54l.14-.56.22.54A71.22,71.22,0,0,0,278.23,383l-.45.12a31.7,31.7,0,0,1,3.58-13.63l.13-.27.23-.44.23.44a58.84,58.84,0,0,0,7.94,11.37l-.42.19c-.56-4.77-1.06-9.13-1.5-12.84l-.09-.78.45.64,6.18,8.81,1.66,2.42.42.64C296.69,379.8,296.73,379.88,296.72,379.88Z" style="fill:#455a64"></path><path d="M428.36,383.34c-.06,0,0-.91,0-2.5a34.9,34.9,0,0,0-.74-6.59l.4.05a44.7,44.7,0,0,0-3.29,9.29l-.52,2.26v-2.32c0-.54,0-1.11,0-1.69,0-2.92.05-5.7.07-8.23l.45.12a58.8,58.8,0,0,1-5.17,7.47c-.7.87-1.29,1.52-1.7,2a3.66,3.66,0,0,1-.66.64,4.61,4.61,0,0,1,.55-.74l1.58-2a68.29,68.29,0,0,0,5-7.54l.45-.78v.91c0,2.53,0,5.31,0,8.23,0,.57,0,1.15,0,1.68l-.51-.06a42.28,42.28,0,0,1,3.4-9.36l.29-.57.12.62a30.7,30.7,0,0,1,.57,6.68c0,.8-.08,1.43-.12,1.86A2.46,2.46,0,0,1,428.36,383.34Z" style="fill:#455a64"></path><path d="M309.44,398.45a5.68,5.68,0,0,1-.6-.62L307.22,396l-5.79-6.82.37-.1a26.24,26.24,0,0,0,.33,9.18l.14.63-.53-.38A39.27,39.27,0,0,1,294.8,392c-.62-.74-1.21-1.49-1.76-2.25l.46-.19a45.4,45.4,0,0,0,1.95,8.09l.57,1.65-1-1.43a64.94,64.94,0,0,0-7.61-9l.29-.13c.12,2.42.23,4.38.3,5.81l.06,1.56a2.27,2.27,0,0,1,0,.54,3.25,3.25,0,0,1-.08-.54c0-.4-.09-.92-.15-1.55-.11-1.42-.27-3.38-.46-5.8l0-.45.33.31a60.88,60.88,0,0,1,7.76,9l-.42.22a43.79,43.79,0,0,1-2-8.17l-.15-1,.62.85c.54.75,1.13,1.49,1.74,2.21a39.49,39.49,0,0,0,6.84,6.39l-.39.25a25.85,25.85,0,0,1-.26-9.34l.07-.46.3.37,5.64,6.92c.64.79,1.15,1.44,1.54,1.93A4.39,4.39,0,0,1,309.44,398.45Z" style="fill:#455a64"></path><path d="M353.69,397.27a3.77,3.77,0,0,1,0-.74q0-.79.09-2.1c.11-1.89.26-4.52.44-7.75l.29.17a50.6,50.6,0,0,0-11.25,10.47l-.6.75.15-.95c.39-2.52.8-5.19,1.23-7.94l.27-1.72.39.26a19.1,19.1,0,0,0-4.76,4.35c-1.32,1.64-2.44,3.34-3.5,4.95l-.55.83.12-1c.41-3.54.79-6.73,1.11-9.48l.31.15a48.57,48.57,0,0,0-5.07,5.42l-1.25,1.59a3.28,3.28,0,0,1-.45.55,4.16,4.16,0,0,1,.36-.61c.26-.39.65-1,1.18-1.66a43,43,0,0,1,5-5.56l.36-.34,0,.5c-.29,2.75-.63,5.95-1,9.5l-.43-.16a57.85,57.85,0,0,1,3.5-5,19.31,19.31,0,0,1,4.88-4.49l.48-.29-.09.56-.27,1.72c-.43,2.75-.85,5.42-1.24,7.94l-.45-.2a49.37,49.37,0,0,1,11.44-10.46l.33-.21,0,.38c-.26,3.22-.46,5.84-.61,7.73-.08.87-.14,1.57-.19,2.1A3.9,3.9,0,0,1,353.69,397.27Z" style="fill:#455a64"></path></g><g id="freepik--Hashtag--inject-17"><path d="M283.46,125.31h1.65v1.45H283.3l-.26,2.13h-1.43l.25-2.13H280l-.25,2.13h-1.42l.25-2.13h-1.66v-1.45h1.83l.26-2.16h-1.66V121.7h1.83l.25-2.13h1.43l-.26,2.13h1.87l.25-2.13h1.42l-.25,2.13h1.65v1.45h-1.82Zm-1.43,0,.26-2.16h-1.86l-.27,2.16Z" style="fill:#FF725E"></path><path d="M295,119.57v9.32H293v-3.82h-4v3.82h-2.06v-9.32h2.06v3.68h4v-3.68Z" style="fill:#FF725E"></path><path d="M303,126.89h-4.13l-.79,2H296l4-9.32h2l4,9.32h-2.16Zm-.65-1.64-1.41-3.56-1.41,3.56Z" style="fill:#FF725E"></path><path d="M312.74,120a3,3,0,0,1,1.34,1.17,3.64,3.64,0,0,1,0,3.58,3,3,0,0,1-1.34,1.17,4.81,4.81,0,0,1-2.05.41H308.9v2.57h-2.06v-9.32h3.85A4.66,4.66,0,0,1,312.74,120Zm-.75,4.15a1.49,1.49,0,0,0,.48-1.19,1.51,1.51,0,0,0-.48-1.2,2.12,2.12,0,0,0-1.41-.42H308.9v3.23h1.68A2.12,2.12,0,0,0,312,124.14Z" style="fill:#FF725E"></path><path d="M321.91,120a3,3,0,0,1,1.34,1.17,3.64,3.64,0,0,1,0,3.58,3,3,0,0,1-1.34,1.17,4.81,4.81,0,0,1-2.05.41h-1.79v2.57H316v-9.32h3.85A4.66,4.66,0,0,1,321.91,120Zm-.76,4.15a1.46,1.46,0,0,0,.49-1.19,1.48,1.48,0,0,0-.49-1.2,2.07,2.07,0,0,0-1.4-.42h-1.68v3.23h1.68A2.07,2.07,0,0,0,321.15,124.14Z" style="fill:#FF725E"></path><path d="M329.45,125.59v3.3h-2.06v-3.33l-3.44-6h2.18l2.38,4.14,2.37-4.14h2Z" style="fill:#FF725E"></path><path d="M341.83,119.57v9.32h-2.05v-3.82h-4v3.82h-2.06v-9.32h2.06v3.68h4v-3.68Z" style="fill:#FF725E"></path><path d="M349.8,126.89h-4.13l-.79,2h-2.11l4-9.32h2l4,9.32h-2.16Zm-.65-1.64-1.41-3.56-1.41,3.56Z" style="fill:#FF725E"></path><path d="M353.67,119.57h2.06v7.56h4.45v1.76h-6.51Z" style="fill:#FF725E"></path><path d="M361.34,119.57h2.06v7.56h4.45v1.76h-6.51Z" style="fill:#FF725E"></path><path d="M370.67,128.42a4.56,4.56,0,0,1-1.74-1.72,5.16,5.16,0,0,1,0-4.94,4.56,4.56,0,0,1,1.74-1.72,5,5,0,0,1,2.49-.62,4.9,4.9,0,0,1,2.49.62,4.56,4.56,0,0,1,1.74,1.72,5.09,5.09,0,0,1,0,4.94,4.56,4.56,0,0,1-1.74,1.72,4.9,4.9,0,0,1-2.49.63A5,5,0,0,1,370.67,128.42Zm3.92-1.59a2.6,2.6,0,0,0,1-1.06,3.47,3.47,0,0,0,0-3.08,2.67,2.67,0,0,0-1-1.06,2.78,2.78,0,0,0-1.43-.38,2.74,2.74,0,0,0-1.42.38,2.69,2.69,0,0,0-1,1.06,3.47,3.47,0,0,0,0,3.08,2.62,2.62,0,0,0,1,1.06,2.74,2.74,0,0,0,1.42.38A2.78,2.78,0,0,0,374.59,126.83Z" style="fill:#FF725E"></path><path d="M392.72,119.57l-2.91,9.32H387.6l-2-6.31-2,6.31h-2.2l-2.92-9.32h2.13l2,6.55,2.1-6.55h1.9l2,6.6,2.07-6.6Z" style="fill:#FF725E"></path><path d="M400.75,127.16v1.73h-6.89v-9.32h6.72v1.73h-4.67v2H400V125h-4.13v2.16Z" style="fill:#FF725E"></path><path d="M409.27,127.16v1.73h-6.88v-9.32h6.72v1.73h-4.68v2h4.13V125h-4.13v2.16Z" style="fill:#FF725E"></path><path d="M419.06,119.57v9.32h-1.69l-4.43-5.66v5.66h-2v-9.32h1.7l4.42,5.66v-5.66Z" style="fill:#FF725E"></path></g><g id="freepik--speech-bubble--inject-17"><path d="M107.54,71.41H38a6.79,6.79,0,0,0-6.8,6.79v25.69a6.8,6.8,0,0,0,6.8,6.8H95.57a9.22,9.22,0,0,0,7.84,9.4,9.38,9.38,0,0,1-.34-9.4h4.47a6.8,6.8,0,0,0,6.8-6.8V78.2A6.79,6.79,0,0,0,107.54,71.41Z" style="fill:#fff"></path><path d="M107.54,71.41a5,5,0,0,1,.93,0,6.3,6.3,0,0,1,2.58.86,6.92,6.92,0,0,1,2.87,3.29,7.2,7.2,0,0,1,.53,2.77c0,1,0,2,0,3.17,0,4.49,0,9.95.05,16.24,0,1.58,0,3.2,0,4.88a12.58,12.58,0,0,1-.13,2.58,6.95,6.95,0,0,1-5.55,5.52,16.21,16.21,0,0,1-2.86.13h-2.91l.19-.11a9.18,9.18,0,0,0,.34,9.18l.28.42-.5-.08a9.46,9.46,0,0,1-8-9.63l.24.25-49.69,0H39.47a12.51,12.51,0,0,1-3.21-.23,6.89,6.89,0,0,1-2.87-1.5,7.18,7.18,0,0,1-1.89-2.61,7.7,7.7,0,0,1-.55-3.13V97.35c0-4,0-8,0-11.92V79.64a14,14,0,0,1,.16-2.88A7,7,0,0,1,37,71.25a25.19,25.19,0,0,1,2.73-.08H52.68l18.42,0,26.67.09,7.25,0,1.88,0c.43,0,.64,0,.64,0l-.64,0-1.88,0-7.25.05-26.67.08-18.42,0-10.26,0H39.76a23.62,23.62,0,0,0-2.67.07,6.57,6.57,0,0,0-5.5,5.15,14.08,14.08,0,0,0-.14,2.78c0,1.91,0,3.84,0,5.79V97.35c0,2,0,4.07,0,6.13a7.1,7.1,0,0,0,.5,2.93,6.77,6.77,0,0,0,1.76,2.42,6.63,6.63,0,0,0,2.65,1.39,12.09,12.09,0,0,0,3.09.21h6.41l49.69,0h.24v.24a9,9,0,0,0,7.64,9.18l-.22.34a9.62,9.62,0,0,1-.33-9.62l.06-.11h3a16,16,0,0,0,2.79-.11,6.6,6.6,0,0,0,5.26-5.2,12.36,12.36,0,0,0,.13-2.51c0-1.68,0-3.3,0-4.88,0-6.29,0-11.75,0-16.24,0-2.23.25-4.28-.47-5.87A6.75,6.75,0,0,0,111,72.42a6.42,6.42,0,0,0-2.51-.91C107.86,71.42,107.54,71.43,107.54,71.41Z" style="fill:#263238"></path><path d="M50.6,91.71h1.71v1.43H50.43l-.26,2.1H48.68l.27-2.1H47l-.26,2.1H45.28l.26-2.1H43.82V91.71h1.89L46,89.58H44.27V88.15h1.89L46.42,86h1.47l-.26,2.11h1.93L49.83,86H51.3L51,88.15h1.7l0,1.43h-1.9Zm-1.48,0,.27-2.13H47.46l-.28,2.13Z" style="fill:#FF725E"></path><path d="M54.62,95.13a4.44,4.44,0,0,1-1.34-.54L54,93.12a4.3,4.3,0,0,0,1.14.49,5.06,5.06,0,0,0,1.31.19c.87,0,1.3-.22,1.3-.65a.45.45,0,0,0-.35-.43,5.11,5.11,0,0,0-1.09-.22,9.58,9.58,0,0,1-1.43-.31,2.13,2.13,0,0,1-1-.6,1.71,1.71,0,0,1-.42-1.24,1.9,1.9,0,0,1,.39-1.18A2.48,2.48,0,0,1,55,88.36a4.71,4.71,0,0,1,1.76-.29,6.86,6.86,0,0,1,1.49.16,4.1,4.1,0,0,1,1.23.46l-.69,1.45a4.06,4.06,0,0,0-2-.52,2.13,2.13,0,0,0-1,.18.55.55,0,0,0-.33.48.48.48,0,0,0,.36.46A6.9,6.9,0,0,0,56.9,91a11,11,0,0,1,1.42.3,2.23,2.23,0,0,1,1,.6,1.7,1.7,0,0,1,.4,1.21,1.87,1.87,0,0,1-.39,1.17,2.55,2.55,0,0,1-1.15.8,5.36,5.36,0,0,1-1.8.28A6.65,6.65,0,0,1,54.62,95.13Z" style="fill:#FF725E"></path><path d="M66.92,88.52a3.26,3.26,0,0,1,1.27,1.28,4.2,4.2,0,0,1,0,3.82,3.32,3.32,0,0,1-1.27,1.28,3.64,3.64,0,0,1-1.8.45A2.74,2.74,0,0,1,63,94.49v3.3H60.94V88.17h2V89a2.7,2.7,0,0,1,2.22-.92A3.64,3.64,0,0,1,66.92,88.52Zm-.86,4.61a2,2,0,0,0,.51-1.42,2,2,0,0,0-.51-1.43,1.71,1.71,0,0,0-1.29-.53,1.73,1.73,0,0,0-1.3.53,2,2,0,0,0-.5,1.43,2,2,0,0,0,.5,1.42,1.7,1.7,0,0,0,1.3.54A1.68,1.68,0,0,0,66.06,93.13Z" style="fill:#FF725E"></path><path d="M71.37,94.88A3.44,3.44,0,0,1,70,93.59a3.6,3.6,0,0,1,1.38-5.06,4.6,4.6,0,0,1,4,0,3.67,3.67,0,0,1,1.38,1.3,3.58,3.58,0,0,1-1.38,5,4.51,4.51,0,0,1-4,0Zm3.3-1.75a2,2,0,0,0,.51-1.42,2,2,0,0,0-.51-1.43,1.85,1.85,0,0,0-2.59,0,2,2,0,0,0-.52,1.43,1.93,1.93,0,0,0,.52,1.42,1.82,1.82,0,0,0,2.59,0Z" style="fill:#FF725E"></path><path d="M80,94.88a3.53,3.53,0,0,1-1.39-1.29,3.85,3.85,0,0,1,0-3.76A3.63,3.63,0,0,1,80,88.53a4.25,4.25,0,0,1,2-.46,4.17,4.17,0,0,1,2,.46,3.68,3.68,0,0,1,1.38,5.06A3.44,3.44,0,0,1,84,94.88a4.18,4.18,0,0,1-2,.47A4.26,4.26,0,0,1,80,94.88Zm3.3-1.75a2,2,0,0,0,.51-1.42,2,2,0,0,0-.51-1.43A1.73,1.73,0,0,0,82,89.75a1.77,1.77,0,0,0-1.31.53,2,2,0,0,0-.51,1.43,2,2,0,0,0,.51,1.42,1.74,1.74,0,0,0,1.31.54A1.7,1.7,0,0,0,83.28,93.13Z" style="fill:#FF725E"></path><path d="M90.27,92.47l-1,1v1.8h-2V85.49h2V91l3-2.84h2.44l-2.94,3L95,95.24H92.5Z" style="fill:#FF725E"></path><path d="M102.51,88.17l-3.19,7.51a3.65,3.65,0,0,1-1.2,1.72,3,3,0,0,1-1.73.5,3.7,3.7,0,0,1-1.09-.17,2.39,2.39,0,0,1-.88-.48l.75-1.45a1.64,1.64,0,0,0,.54.32,1.7,1.7,0,0,0,.61.12A1.13,1.13,0,0,0,97,96a1.79,1.79,0,0,0,.47-.68l0-.06-3.06-7.13h2.11l2,4.8,2-4.8Z" style="fill:#FF725E"></path></g><g id="freepik--Bats--inject-17"><path d="M184,29.46s20.93,1.13,23.27,11.25l2.92-3.27.11,3.67,3.55.7s1.92-4.06,1.77-3.33a16.48,16.48,0,0,0,.81,3.8s9.74-7.25,23.47.62c0,0-9.32-3.24-12.25,4.07,0,0-6.15-3.89-8.28,2.42,0,0-5-.1-6,4.56a35,35,0,0,0-2.91-3.85c-.3-.21-4.72,2.46-4.72,2.46s1.8-5.9-3.94-7c0,0,2.75-6.42-6.78-6.19C195,39.42,198.84,34,184,29.46Z" style="fill:#263238"></path><path d="M25.06,158.18s17-8,24.77,11.86l-.48-7.45,2.49,4.13.24-5.22,3.21,8.68s-2.78-18.05,12.93-22.83c0,0-7.7,6.06-2.36,13.62,0,0-5.2,2-4.72,9.43,0,0-5.46,3.73-5.61,10.46,0,0-5-9.68-13.7-7.49,0,0,1.58-9.1-7.19-9.82C34.64,163.55,32.91,158.5,25.06,158.18Z" style="fill:#263238"></path></g><g id="freepik--Character--inject-17"><path d="M139.31,152.71l-18.15-28s10.59-15.34,38.11-14.18,38,14.66,38,14.66L177.6,153.34Z" style="fill:#263238"></path><path d="M145.21,147s-20.05-22.09-20.78-22.57,6.57-9.92,18.19-11,40.21-2.43,51.38,11.06L173.67,147.9Z" style="fill:#FF725E"></path><path d="M155.33,102.11a1.72,1.72,0,0,1-.75-.31,4.06,4.06,0,0,1-1.51-1.62,4.12,4.12,0,0,1-.26-3.33A4.45,4.45,0,0,1,155.86,94l-.11.44a4.14,4.14,0,0,1-1-1.39,4.47,4.47,0,0,1-.25-2.76,3.94,3.94,0,0,1,1.36-2.16,4.28,4.28,0,0,1,3.93-.77l-.21.19a6.43,6.43,0,0,1,0-2.14,1.8,1.8,0,0,1,.22-.73,11.27,11.27,0,0,0,.09,2.81l.05.26-.26-.07a4,4,0,0,0-3.54.81A3.58,3.58,0,0,0,155,90.45a4,4,0,0,0,.24,2.43,3.5,3.5,0,0,0,.86,1.22l.35.33-.47.11A4.06,4.06,0,0,0,153.24,97a3.82,3.82,0,0,0,.13,3,4.34,4.34,0,0,0,1.32,1.63A7.37,7.37,0,0,1,155.33,102.11Z" style="fill:#fff"></path><path d="M182.1,104.43a20.25,20.25,0,0,0-20.23-18.58h-1.05c-11.31.68-17,10.67-16,22l1.09,39.89-.47,6.48,26.6,6,.65-17.33s10.87-1.71,11-12.59C183.68,125,182.91,114.22,182.1,104.43Z" style="fill:#ffbf9d"></path><path d="M172.73,142.87a26.38,26.38,0,0,1-14.25-4.14s3.21,8.07,14.05,7.07Z" style="fill:#ff9a6c"></path><path d="M178.27,114.77a1.56,1.56,0,0,1-1.5,1.57,1.48,1.48,0,0,1-1.6-1.4,1.56,1.56,0,0,1,1.49-1.57A1.49,1.49,0,0,1,178.27,114.77Z" style="fill:#263238"></path><path d="M179.77,109.76c-.19.2-1.37-.67-3-.66s-2.89.85-3.07.64.1-.45.64-.84a4.25,4.25,0,0,1,2.46-.77,4.16,4.16,0,0,1,2.42.78C179.69,109.3,179.87,109.67,179.77,109.76Z" style="fill:#263238"></path><path d="M163.21,114.77a1.56,1.56,0,0,1-1.5,1.57,1.48,1.48,0,0,1-1.6-1.4,1.56,1.56,0,0,1,1.49-1.57A1.49,1.49,0,0,1,163.21,114.77Z" style="fill:#263238"></path><path d="M163.35,110.1c-.19.21-1.37-.66-3-.65s-2.89.84-3.08.64.11-.46.64-.85a4.35,4.35,0,0,1,2.46-.76,4.05,4.05,0,0,1,2.43.78C163.27,109.65,163.44,110,163.35,110.1Z" style="fill:#263238"></path><path d="M169.44,122.48a11.6,11.6,0,0,1,2.71-.49c.43,0,.83-.13.9-.42a2.24,2.24,0,0,0-.28-1.27c-.41-1-.83-2.11-1.27-3.24-1.76-4.63-3-8.43-2.85-8.5s1.76,3.62,3.52,8.25l1.22,3.26a2.55,2.55,0,0,1,.23,1.68,1.07,1.07,0,0,1-.7.62,2.59,2.59,0,0,1-.73.1A10.33,10.33,0,0,1,169.44,122.48Z" style="fill:#263238"></path><path d="M164.19,124.42l-1,1a4.29,4.29,0,0,0-.43.51c-.2.25-.27.52-.07.64a8.06,8.06,0,0,0,2.27-.74,4.4,4.4,0,0,1-.74-1.32" style="fill:#fff"></path><path d="M167.82,128.11l.13,1.37a4.81,4.81,0,0,0,.13.66c.07.31.24.53.46.45s.84-2.24.84-2.24a4.16,4.16,0,0,1-1.49-.24" style="fill:#fff"></path><path d="M163.63,117.24c0,.05-.25.36-.88.61a4,4,0,0,1-2.6.13A4.09,4.09,0,0,1,158,116.5c-.4-.55-.49-1-.43-1s.28.31.71.75a4.73,4.73,0,0,0,2,1.22,4.67,4.67,0,0,0,2.35,0C163.24,117.36,163.59,117.18,163.63,117.24Z" style="fill:#ff9a6c"></path><path d="M179.89,115.45c.06,0,0,.41-.4.91a3.31,3.31,0,0,1-2.1,1.22A3.36,3.36,0,0,1,175,117c-.51-.37-.69-.73-.64-.77s.33.2.83.45a3.65,3.65,0,0,0,2.1.36,3.58,3.58,0,0,0,1.9-.94C179.63,115.73,179.82,115.41,179.89,115.45Z" style="fill:#ff9a6c"></path><path d="M164.52,123.65c.28,0,.28,1.8,1.84,3.08s3.48,1.08,3.5,1.33-.43.36-1.25.38a4.48,4.48,0,0,1-2.92-1,3.92,3.92,0,0,1-1.42-2.58C164.2,124.09,164.4,123.64,164.52,123.65Z" style="fill:#263238"></path><path d="M163.46,106c-.3.38-1.82-.33-3.76-.71s-3.61-.35-3.73-.81c-.05-.22.34-.55,1.08-.77a6.64,6.64,0,0,1,5.71,1.16C163.36,105.39,163.59,105.84,163.46,106Z" style="fill:#263238"></path><path d="M179.19,104.68c-.3.41-1.62.11-3.18.22s-2.85.47-3.18.1c-.15-.18,0-.58.57-1a4.91,4.91,0,0,1,2.54-.82,4.84,4.84,0,0,1,2.59.56C179.11,104.11,179.32,104.49,179.19,104.68Z" style="fill:#263238"></path><path d="M146.53,118.39a3,3,0,0,0-3.19-2.84c-2,.2-4.28,1.35-4.14,5.54.26,7.44,7.67,5.65,7.67,5.44S146.67,121.5,146.53,118.39Z" style="fill:#ffbf9d"></path><path d="M145.16,123.78s-.13.1-.34.21a1.34,1.34,0,0,1-1,.05,3.21,3.21,0,0,1-1.58-2.82,4.33,4.33,0,0,1,.3-1.87,1.53,1.53,0,0,1,.94-1,.68.68,0,0,1,.78.33c.1.21.06.36.1.37s.16-.13.09-.44a.84.84,0,0,0-.31-.45,1,1,0,0,0-.73-.17,1.83,1.83,0,0,0-1.31,1.2,4.57,4.57,0,0,0-.38,2.09c.1,1.49.92,2.87,2,3.14a1.4,1.4,0,0,0,1.18-.23C145.15,124,145.19,123.8,145.16,123.78Z" style="fill:#ff9a6c"></path><path d="M141.15,110.45c.46,2.16,0,5.65,1.92,5.31,3.82-.68,2.38,6.95,4.23,6.32s3.55-2.69,4-7.42c.57-6-1.54-10.5,1.31-17.22a9.1,9.1,0,0,1,7.93-4.17,9.28,9.28,0,0,1,7.67,4.78c.48-2.07,1.73-5.16,3.67-6a5.42,5.42,0,0,1,5.93.92,4.41,4.41,0,0,1,.38,5.79,2.11,2.11,0,0,0,2.42-.68,3.59,3.59,0,0,1-1.13,2.63,3.35,3.35,0,0,0,2-1.19l-.75,2.57c3.16.3,6.47-2.54,7.55-5.21,1.62-4,.89-8.27-1.16-12.11a13,13,0,0,0-10.35-7c-4.34-.27-8.12,1.53-10.08,5.42-2.68-2.2-8.33-3.29-11.58-2.09a10.19,10.19,0,0,0-6.34,7.63,6.05,6.05,0,0,0-6.06.74c-.15.1-.29.21-.43.32a9,9,0,0,0-3.21,8.13c.15,1.22.48,2.5.65,3.48C140.25,104.29,141.15,110.45,141.15,110.45Z" style="fill:#263238"></path><path d="M181.11,97.88s.1,0,.27-.18a4.12,4.12,0,0,0,.67-.64,6.28,6.28,0,0,0,1.46-3,6,6,0,0,0-1.14-4.84,6.5,6.5,0,0,0-5.49-2.53,7.28,7.28,0,0,0-3.08,1,9.65,9.65,0,0,0-2.34,1.86,11.62,11.62,0,0,0-2.58,4.32,11.08,11.08,0,0,0-.61,3.34,7.63,7.63,0,0,0,0,.92,1,1,0,0,0,0,.32,14,14,0,0,1,.75-4.51,11.82,11.82,0,0,1,2.59-4.18A8.25,8.25,0,0,1,176.9,87a6.27,6.27,0,0,1,5.24,2.39A5.83,5.83,0,0,1,183.28,94,6.41,6.41,0,0,1,182,97C181.45,97.59,181.09,97.85,181.11,97.88Z" style="fill:#455a64"></path><path d="M182.33,101.29a2.09,2.09,0,0,0,.25-.34c.15-.24.38-.58.65-1a22.28,22.28,0,0,0,2-4,11.32,11.32,0,0,0,.7-3,8.52,8.52,0,0,0-.39-3.56,6.83,6.83,0,0,0-2.32-3.19,8.36,8.36,0,0,0-3.92-1.62,10.13,10.13,0,0,0-4.23.38,13.17,13.17,0,0,0-3.56,1.7,10.25,10.25,0,0,0-4.12,5.16,7.55,7.55,0,0,0-.1,4.46,5.77,5.77,0,0,0,.48,1.12,4.13,4.13,0,0,0,.23.36,10.78,10.78,0,0,1-.58-1.52,7.41,7.41,0,0,1,.19-4.35,10.12,10.12,0,0,1,4.07-5,11.28,11.28,0,0,1,7.57-2,8,8,0,0,1,3.78,1.54,6.67,6.67,0,0,1,2.23,3,8.44,8.44,0,0,1,.4,3.44,11.46,11.46,0,0,1-.65,3,25,25,0,0,1-1.92,4c-.24.44-.44.79-.6,1.06A2.09,2.09,0,0,0,182.33,101.29Z" style="fill:#455a64"></path><path d="M144.1,105.85s-.64-.6-1.46-1.73a11,11,0,0,1-2-5,11.19,11.19,0,0,1,.62-5.35c.5-1.31,1-2,1-2.06a2,2,0,0,0-.38.49A8.44,8.44,0,0,0,141,93.7a10.54,10.54,0,0,0-.74,5.47,10.68,10.68,0,0,0,2.16,5.09,8.31,8.31,0,0,0,1.15,1.22A2.11,2.11,0,0,0,144.1,105.85Z" style="fill:#455a64"></path><path d="M150.85,106.12s-.36-.19-.92-.64a5.36,5.36,0,0,1-1.7-2.37l-.26-.73v.77c0,1,0,2.26.07,3.56l.25-.12a10,10,0,0,1-2.25-2.54,9.45,9.45,0,0,1-1.37-4,9.78,9.78,0,0,1,.26-3.47,13.77,13.77,0,0,1,1.26-3s-.06,0-.15.17-.22.3-.37.54a9.14,9.14,0,0,0-1,2.21,9.45,9.45,0,0,0-.34,3.56,9.74,9.74,0,0,0,3.73,6.76l.26.21v-.33c-.05-1.31-.09-2.52-.13-3.56l-.24,0a5.25,5.25,0,0,0,1.86,2.41,4.38,4.38,0,0,0,.72.42A.76.76,0,0,0,150.85,106.12Z" style="fill:#455a64"></path><path d="M154,90.7a6.86,6.86,0,0,1,1.86-2,6.29,6.29,0,0,1,2.75-1,6.57,6.57,0,0,1,3.53.57A7.7,7.7,0,0,1,165,90.43,9.21,9.21,0,0,1,166.41,93a17.21,17.21,0,0,1,.61,2.71,2.48,2.48,0,0,0,0-.76,9.38,9.38,0,0,0-.39-2,9,9,0,0,0-1.41-2.72,7.86,7.86,0,0,0-2.94-2.34,6.82,6.82,0,0,0-3.71-.57,6.2,6.2,0,0,0-2.84,1.16A5.39,5.39,0,0,0,154.32,90a2.7,2.7,0,0,0-.26.5C154,90.63,154,90.69,154,90.7Z" style="fill:#455a64"></path><path d="M156.13,85.18a10.08,10.08,0,0,1,2.09-.64,7.41,7.41,0,0,1,5,1.07,9.23,9.23,0,0,1,3.33,4c.56,1.24.71,2.09.77,2.07a2.37,2.37,0,0,0-.08-.59,9.25,9.25,0,0,0-.47-1.57,9,9,0,0,0-3.37-4.17,7.26,7.26,0,0,0-5.24-1,5.57,5.57,0,0,0-1.55.54A1.58,1.58,0,0,0,156.13,85.18Z" style="fill:#455a64"></path><path d="M202.11,160.4l-89.43,9c-30.05,82.52-30.11,155-39.87,244.31,5.33-9.68,18-11.2,27-6s25.54,14.17,30.35,24.19c5.73-10.11,19.52-27.46,30-29.36s63.84,12,72.08,19.54C236.5,310.1,207.07,252.39,202.11,160.4Z" style="fill:#263238"></path><path d="M193.86,156.76l-81.18,12.63c-17.18,83.43-24.89,149.78-35,238.81,4-3.21,13.19-5.7,22.18-.52s25.54,14.17,30.35,24.19c5.73-10.11,19.52-27.46,30-29.36s63.84,12,72.08,19.54C222.39,308.67,198.82,248.75,193.86,156.76Z" style="fill:#FF725E"></path><g style="opacity:0.30000000000000004"><polygon points="196.53 246.18 204.38 244.44 202.95 236.07 196.71 233.36 196.53 246.18"></polygon></g><g style="opacity:0.30000000000000004"><path d="M113.07,236.63l10.19-12.27L174,252.53l-13.81,150C148,405.4,134,425.83,134,425.83h-8.13c-11.44-11.77-26-18.15-26-18.15l13.49-160.2s-14.2,2.35-13.64-7.95l.18-13.19Z"></path></g><path d="M175.09,438.27l-.76,20.87s20.95,7.79,21.19,11.66l-40.53,0-.14-32.58Z" style="fill:#455a64"></path><path d="M161.8,457.37a1.66,1.66,0,0,0-1.15,1.89,1.59,1.59,0,0,0,1.86,1.15,1.74,1.74,0,0,0,1.2-2,1.64,1.64,0,0,0-2.06-1" style="fill:#e0e0e0"></path><path d="M155,470.77l.12-3.29,38.81,1.26s1.8.79,1.6,2.06Z" style="fill:#263238"></path><path d="M175,458.93c0,.2-1,.29-2,.92s-1.49,1.47-1.67,1.39.11-1.22,1.3-2S175,458.75,175,458.93Z" style="fill:#fff"></path><path d="M179.23,460.69c.05.2-.81.53-1.48,1.37s-.87,1.72-1.07,1.71-.32-1.13.54-2.15S179.23,460.51,179.23,460.69Z" style="fill:#fff"></path><path d="M181.64,465.78c-.18.05-.45-.94.06-2s1.43-1.51,1.51-1.35-.49.75-.89,1.64S181.84,465.76,181.64,465.78Z" style="fill:#fff"></path><path d="M174.63,454.16c-.08.18-1-.1-2.11,0s-2,.42-2.09.26.73-.88,2-.95S174.73,454,174.63,454.16Z" style="fill:#fff"></path><path d="M128.59,440.18,127,465.4l4.47,20.31a2.59,2.59,0,0,1-2.14,3.12h0a2.61,2.61,0,0,1-2.25-.76c-3.7-3.86-17.24-18.1-17-19.94.25-2.13-.07-26.71-.07-26.71Z" style="fill:#455a64"></path><path d="M129.31,488.83l-19.2-22.4,0,1.07a4,4,0,0,0,.82,2.56c1.53,1.95,5.86,7.24,16.11,18a2.58,2.58,0,0,0,2.32.77Z" style="fill:#263238"></path><g style="opacity:0.6000000000000001"><path d="M115.62,458.49a1.58,1.58,0,0,1,.35,2.07,1.51,1.51,0,0,1-2,.36,1.66,1.66,0,0,1-.36-2.19,1.57,1.57,0,0,1,2.17-.14" style="fill:#fff"></path></g><path d="M124,477.56a7.61,7.61,0,0,1,2.29-1.87,7.75,7.75,0,0,1,2.93-.44c0-.06-.28-.27-.87-.38a4,4,0,0,0-2.28.31,4,4,0,0,0-1.76,1.48C124,477.16,123.93,477.54,124,477.56Z" style="fill:#fff"></path><path d="M125.65,481a22.36,22.36,0,0,1,2.28-1,22.64,22.64,0,0,1,2.48-.22,2.9,2.9,0,0,0-2.62-.32C126.29,479.86,125.52,480.94,125.65,481Z" style="fill:#fff"></path><path d="M120.82,473.09a24.24,24.24,0,0,1,3.42-1.77,24.71,24.71,0,0,1,3.78-.72,7,7,0,0,0-7.2,2.49Z" style="fill:#fff"></path><path d="M120.67,465.38c.06.15,1.48-.37,3.3-.36s3.24.5,3.3.35a6.41,6.41,0,0,0-6.6,0Z" style="fill:#fff"></path><path d="M121,458a12,12,0,0,1,3.42-.47,12.66,12.66,0,0,1,3.31,1c0-.05-.22-.37-.79-.73a5.41,5.41,0,0,0-2.48-.8,5.63,5.63,0,0,0-2.57.41C121.23,457.62,120.92,457.91,121,458Z" style="fill:#fff"></path><path d="M124.39,456.08a2.27,2.27,0,0,0,.08-.95,6.94,6.94,0,0,0-.66-2.53,3,3,0,0,0-1.21-1.46,1,1,0,0,0-1.18.19,1.65,1.65,0,0,0-.44,1.12A3.65,3.65,0,0,0,124,456a4.24,4.24,0,0,0,4.26-2,1.5,1.5,0,0,0,.12-1.23,1,1,0,0,0-1-.58,3.51,3.51,0,0,0-1.69.8,7.34,7.34,0,0,0-1.81,1.89,2.18,2.18,0,0,0-.42.85,11.67,11.67,0,0,1,2.45-2.42,3.38,3.38,0,0,1,1.5-.66.55.55,0,0,1,.57.32,1,1,0,0,1-.13.79,3.79,3.79,0,0,1-3.71,1.74,3.18,3.18,0,0,1-2.64-2.95,1.21,1.21,0,0,1,.28-.8.58.58,0,0,1,.65-.11,2.65,2.65,0,0,1,1,1.22A9.55,9.55,0,0,1,124.39,456.08Z" style="fill:#fff"></path><path d="M193.51,262.6a87.21,87.21,0,0,1,2.63,26.33c-.32,5.62-19,167.92-19,167.92l-23.6-2.05,4.18-151.73-1,.86s-14.1,63.84-15,73.94c-.84,9.07-12.11,81.94-12.11,81.94l-22.9-1L112,366.65,119,283l2.8-24.36Z" style="fill:#263238"></path><path d="M153.22,290a5.27,5.27,0,0,0,1.11.57,12.67,12.67,0,0,0,3.28,1,7.07,7.07,0,0,0,2.42,0,5.05,5.05,0,0,0,2.5-1.24,5.83,5.83,0,0,0,1.47-2.65c.29-1,.44-2,.64-3.09.74-4.22,1.22-8.08,1.48-10.87.14-1.4.22-2.53.26-3.32a6,6,0,0,0,0-1.22,4.71,4.71,0,0,0-.22,1.2c-.12.89-.27,2-.44,3.29-.36,2.78-.9,6.62-1.64,10.83-.38,2.09-.62,4.21-1.92,5.47a5.56,5.56,0,0,1-4.51,1.26,15.48,15.48,0,0,1-3.25-.85A5.53,5.53,0,0,0,153.22,290Z" style="fill:#455a64"></path><path d="M160.67,270s-.17-.12-.55-.14a2.37,2.37,0,0,0-1.45.49,2.57,2.57,0,0,0-1.07,2,2.4,2.4,0,0,0,1.74,2.16,2.35,2.35,0,0,0,3.19-2.85,2.34,2.34,0,0,0-.83-1.27c-.3-.21-.51-.23-.52-.21a2.85,2.85,0,0,1,1,1.56,2.19,2.19,0,0,1-.46,1.81,2,2,0,0,1-2.16.45,1.93,1.93,0,0,1-1.4-1.66,2.18,2.18,0,0,1,.8-1.69A3,3,0,0,1,160.67,270Z" style="fill:#455a64"></path><path d="M119.29,281.51a2.67,2.67,0,0,0,.9.11,17,17,0,0,0,2.46,0,24.51,24.51,0,0,0,7.87-2,23.94,23.94,0,0,0,6.74-4.42,15.11,15.11,0,0,0,1.66-1.77c.36-.45.54-.7.51-.73s-.9.9-2.44,2.22a27,27,0,0,1-6.7,4.21,27.88,27.88,0,0,1-7.68,2.08C120.58,281.45,119.29,281.41,119.29,281.51Z" style="fill:#455a64"></path><path d="M182.9,270a11.28,11.28,0,0,0,1.43,2.57A29.11,29.11,0,0,0,189,278a29.9,29.9,0,0,0,5.88,4.15,12,12,0,0,0,2.74,1.19,27.05,27.05,0,0,0-2.55-1.52,36.16,36.16,0,0,1-10.43-9.42A27,27,0,0,0,182.9,270Z" style="fill:#455a64"></path><path d="M208.18,181.08c3.48,9.71,3.09,8.88,9.6,37.88,1.2,5.35-.92,13.71-6,16.29s-14-.25-17-4.91L190,186.57Z" style="fill:#e0e0e0"></path><path d="M124.61,233.53l.14-23.05-.1-2.26-23.13-5.28s3.45-15.33,7.86-31.59c2.55-9.4,11-14.12,13.07-15.14h0l.45-.2h0l23.56-9.54c4.76,4.86,11.7,8.75,18.38,6.88,3.65-1,5.62-2.74,7.91-5.47l17.66,4.36h0a20.41,20.41,0,0,1,11,8.5c3.33,5.62,10.33,31.7,10.51,32.28l-16.05,1.37s3.27,54,2,64.85c0,0,2.44,6.1-15.15,5.94-24.46-.23-56.85-5.1-56.85-5.1s-4.25-.06-3.92-3Z" style="fill:#e0e0e0"></path><path d="M195.18,171.68c-.1,0,.42,14.55,1.17,32.48s1.43,32.47,1.53,32.47-.43-14.55-1.17-32.48S195.28,171.68,195.18,171.68Z" style="fill:#263238"></path><path d="M127.3,175.75c.18,0-.32,12.91-1.1,28.82s-1.56,28.8-1.74,28.79.32-12.91,1.11-28.82S127.13,175.74,127.3,175.75Z" style="fill:#263238"></path><polygon points="125.88 169.06 126.94 181.02 120.83 263.95 144 274.07 161.75 265.18 162.69 189.71 145.21 147 135.9 152.28 125.88 169.06" style="fill:#455a64"></polygon><polygon points="201.03 169.43 199.01 176.25 197.94 263 181.86 276.04 161.75 265.18 162.69 189.71 178.86 150.27 192.48 151.9 201.03 169.43" style="fill:#455a64"></polygon><path d="M174.41,148.33c7.45,1.24,6.48,9.23,2.27,10.68a10.47,10.47,0,0,1-4.39,17.71c.18,3.22.34,6.58-.95,9.54s-4.51,5.35-7.64,4.57a7,7,0,0,1-4.49-4.32,20.9,20.9,0,0,1-1.16-6.34,8.82,8.82,0,1,1-9.26-15c-5.9-2.1-8.49-10.6-1.45-16.83" style="fill:#e0e0e0"></path><path d="M147.34,148.33s-.07.1-.24.28l-.74.77c-.33.33-.65.82-1.08,1.34a12.8,12.8,0,0,0-1.15,2.05,9.42,9.42,0,0,0-.59,6.22,8.67,8.67,0,0,0,1.76,3.49,8,8,0,0,0,3.56,2.49l.39.14-.36.22A8.63,8.63,0,0,0,145.3,170a9,9,0,0,0,.22,6.41,8.24,8.24,0,0,0,5.2,4.42,8.77,8.77,0,0,0,7.19-.82l.37-.23,0,.42a25.73,25.73,0,0,0,.73,5.07,8.35,8.35,0,0,0,2.69,4.33,5.08,5.08,0,0,0,5.11.8,7.84,7.84,0,0,0,3.92-3.5,12.19,12.19,0,0,0,1.34-5,39.35,39.35,0,0,0,0-5.1v-.19l.19,0a10.43,10.43,0,0,0,7.4-8.35,10.55,10.55,0,0,0-3.07-9l-.21-.2.27-.09a4.54,4.54,0,0,0,2.41-2,5.74,5.74,0,0,0,.75-2.77A5.17,5.17,0,0,0,178,150a7.1,7.1,0,0,0-2.57-1.35l-.73-.2-.25-.08a.86.86,0,0,1,.26,0l.75.16a6.77,6.77,0,0,1,2.66,1.3,5.33,5.33,0,0,1,2,4.22,5.85,5.85,0,0,1-.75,2.91,4.91,4.91,0,0,1-2.56,2.23l.06-.29A10.68,10.68,0,0,1,172.35,177l.18-.24a38.26,38.26,0,0,1,.07,5.15,12.67,12.67,0,0,1-1.39,5.24,8.32,8.32,0,0,1-4.19,3.73,5.63,5.63,0,0,1-2.91.34,5.77,5.77,0,0,1-2.7-1.21,8.89,8.89,0,0,1-2.87-4.6,26.74,26.74,0,0,1-.74-5.17l.39.2c-4.72,2.91-11.2.66-13.1-3.84a9.33,9.33,0,0,1-.2-6.73,9,9,0,0,1,3.8-4.83l0,.35a8.36,8.36,0,0,1-3.71-2.63,9.17,9.17,0,0,1-1.79-3.64,9.7,9.7,0,0,1,.7-6.39,12.46,12.46,0,0,1,1.21-2.06c.45-.52.79-1,1.14-1.32l.78-.74A1.89,1.89,0,0,1,147.34,148.33Z" style="fill:#263238"></path><path d="M170.49,150.39c4.79.8,4.17,5.94,1.46,6.88a6.72,6.72,0,0,1-2.82,11.38,13.37,13.37,0,0,1-.61,6.14c-.83,1.9-2.9,3.43-4.91,2.93a4.47,4.47,0,0,1-2.89-2.77,13.13,13.13,0,0,1-.74-4.08,5.67,5.67,0,1,1-6-9.65c-3.79-1.35-5.46-6.82-.93-10.83" style="fill:#e0e0e0"></path><path d="M153.09,150.39a4.84,4.84,0,0,1-.62.69,8.19,8.19,0,0,0-1.41,2.19,6.12,6.12,0,0,0-.37,4,5.39,5.39,0,0,0,3.4,3.79l.39.14-.36.22a5.43,5.43,0,0,0-2.27,2.94,5.7,5.7,0,0,0,.14,4.06,5.62,5.62,0,0,0,7.85,2.27l.36-.23,0,.42a16.77,16.77,0,0,0,.47,3.24,5.33,5.33,0,0,0,1.7,2.74,3.17,3.17,0,0,0,3.19.5,5,5,0,0,0,2.48-2.21c1.07-2,.92-4.34.82-6.45v-.2l.19-.05a6.63,6.63,0,0,0,4.71-5.3,6.73,6.73,0,0,0-1.95-5.73l-.2-.19.27-.1a3.23,3.23,0,0,0,2-3,3.27,3.27,0,0,0-1.15-2.59,4.56,4.56,0,0,0-1.63-.88,3,3,0,0,1-.63-.2,3.88,3.88,0,0,1,.66.11,4.24,4.24,0,0,1,1.72.83,3.44,3.44,0,0,1,1.3,2.74,3.86,3.86,0,0,1-.48,1.9,3.2,3.2,0,0,1-1.68,1.46l.06-.29a6.93,6.93,0,0,1-2.88,11.74l.18-.24a26.2,26.2,0,0,1,0,3.33,8.22,8.22,0,0,1-.91,3.4,5.43,5.43,0,0,1-2.73,2.44,3.71,3.71,0,0,1-3.71-.57,5.86,5.86,0,0,1-1.87-3,17,17,0,0,1-.48-3.34l.39.2a5.9,5.9,0,1,1-6.19-10l0,.35a5.7,5.7,0,0,1-3.56-4.09,6.18,6.18,0,0,1,.47-4.13,7.56,7.56,0,0,1,1.53-2.17A7.33,7.33,0,0,1,153.09,150.39Z" style="fill:#263238"></path><path d="M191.6,184.71l-3,31.52a4.41,4.41,0,0,1-1.95,3.63l-19.12-.41c-.78-.7-1.63-2.95-1.46-5.35l2.12-30.18c.13-1.81.8-3.12,1.62-3.14l20.14-.47C191,180.29,191.82,182.46,191.6,184.71Z" style="fill:#263238"></path><path d="M194.38,191.05a2.77,2.77,0,0,0-.06-3.42,4.23,4.23,0,0,0-3.27-1.46,9.32,9.32,0,0,0-3.59.83,23.65,23.65,0,0,0-4,2.14,3.87,3.87,0,0,0-2,2.42c-.16,1.07,1,2.26,1.95,1.7a4.51,4.51,0,0,0-2.56,3.21c-.17,1.34.57,2.05,1.88,2.41a2,2,0,0,0-1.11,2.62,2.34,2.34,0,0,0,2.93.82,6.8,6.8,0,0,0,2.49-2.19,7.7,7.7,0,0,0-.34,4.8c2.85-1.05,5.66-4.22,4.81-7.23a4.09,4.09,0,0,0,1.15-4.89,4,4,0,0,0,2.3-3.39" style="fill:#ffbf9d"></path><path d="M194.7,188.3l.23,13.47,3.49,5.26,16,14.33S211.27,238,204,235.89s-6.57-2.16-10.85-10c-2.29-4.21-5.3-9.59-6.62-13.51-.78-2.31-.1-9.72-.1-9.72Z" style="fill:#ffbf9d"></path><path d="M182.73,198.89a9.9,9.9,0,0,0,1.23-1,8.37,8.37,0,0,1,3.23-1.75,4.38,4.38,0,0,1,2,0,3.65,3.65,0,0,1,1.47.69,4.56,4.56,0,0,1,1,1.17s0-.16-.12-.41a2.86,2.86,0,0,0-.71-.93,3.67,3.67,0,0,0-1.55-.81,4.65,4.65,0,0,0-2.13,0,7.78,7.78,0,0,0-3.31,1.89A6.09,6.09,0,0,0,182.73,198.89Z" style="fill:#ff9a6c"></path><path d="M182.92,193.4a6.64,6.64,0,0,0,1.5-.66A17.48,17.48,0,0,1,186,192a13.61,13.61,0,0,1,2.06-.58,5.73,5.73,0,0,1,2.09-.07,3.58,3.58,0,0,1,1.57.64,3.92,3.92,0,0,1,1.05,1.19,1,1,0,0,0-.13-.43,2.79,2.79,0,0,0-.78-.94,3.77,3.77,0,0,0-1.65-.75,5.9,5.9,0,0,0-2.21.05,11.92,11.92,0,0,0-2.11.62,14.52,14.52,0,0,0-1.59.81A14.26,14.26,0,0,0,182.92,193.4Z" style="fill:#ff9a6c"></path><path d="M187.88,219.42,198.4,205.7l17.12,15,1.27,8.45-2.34,4.67-.81,1.19a9.23,9.23,0,0,1-6.41,4h-.11a9.28,9.28,0,0,1-6.35-1.52l-2.5-1.69s-2-2.79-5.54-9.22A37.41,37.41,0,0,0,187.88,219.42Z" style="fill:#e0e0e0"></path><path d="M212.73,229.1a13.22,13.22,0,0,0,.19-5A15.08,15.08,0,0,0,211,219a24.91,24.91,0,0,0-4.23-5.2c-1.73-1.66-3.5-3.11-5.08-4.48a48.62,48.62,0,0,1-4.05-3.82,22.91,22.91,0,0,1-2.34-2.94,6.22,6.22,0,0,1-.67-1.21,9.54,9.54,0,0,1,.84,1.09,29.34,29.34,0,0,0,2.44,2.8c1.1,1.12,2.5,2.37,4.09,3.71s3.39,2.79,5.14,4.47a24.2,24.2,0,0,1,4.28,5.33A15.07,15.07,0,0,1,213.3,224a10.55,10.55,0,0,1-.13,3.77,6.82,6.82,0,0,1-.29,1C212.8,229,212.74,229.11,212.73,229.1Z" style="fill:#263238"></path><polygon points="145.44 140.23 161.26 146.02 172.89 143.48 174.1 148.04 161.13 154.14 145.2 147.32 145.44 140.23" style="fill:#e0e0e0"></polygon><path d="M164.93,180.24l-6.39-4-8.94,2-4.67,3.58-8.12,16.07-5.91,6.23,8.25,13,6.9-10.27s5.22-1.74,7.52-4.73,3.36-4.63,3.36-4.63,3-1.13,3.68-2.42a6.64,6.64,0,0,0,.73-2.33l-1.28-2.28s.33-2-.19-2.77a2.72,2.72,0,0,0-1.07-1s.59-1.77,0-2.48a20.78,20.78,0,0,0-3.84-2.2h0l3.07-1.39S164.3,183.17,164.93,180.24Z" style="fill:#ffbf9d"></path><path d="M154.43,185.39c0,.09,1,.2,2.22.58s2.12.84,2.17.77a5.23,5.23,0,0,0-2.08-1.05A5.3,5.3,0,0,0,154.43,185.39Z" style="fill:#ff9a6c"></path><path d="M156.11,189.32c0,.08.87.16,1.91.42s1.86.58,1.89.51a5.88,5.88,0,0,0-3.8-.93Z" style="fill:#ff9a6c"></path><path d="M158.41,195.43c.08,0,.17-.37.2-.84s0-.86-.08-.86-.17.37-.2.84S158.33,195.43,158.41,195.43Z" style="fill:#ff9a6c"></path><path d="M157,197.12a3.92,3.92,0,0,1,.75-1.48,4.13,4.13,0,0,1,1.44-.86s-.21-.07-.53,0a2.3,2.3,0,0,0-1.7,1.81C156.88,196.92,156.93,197.13,157,197.12Z" style="fill:#ff9a6c"></path><path d="M152.21,191.3a4.51,4.51,0,0,1,1.27-1,4.78,4.78,0,0,1,1.63-.25s-.17-.14-.49-.19a2.4,2.4,0,0,0-1.26.18,2.38,2.38,0,0,0-1,.81C152.21,191.09,152.18,191.29,152.21,191.3Z" style="fill:#ff9a6c"></path><path d="M149.49,187.32c.08,0,.4-.63,1.17-1a5.7,5.7,0,0,1,1.51-.37s-.16-.11-.47-.14a2.29,2.29,0,0,0-1.17.26,2.32,2.32,0,0,0-.88.8C149.49,187.12,149.46,187.31,149.49,187.32Z" style="fill:#ff9a6c"></path><path d="M147.61,185.32s0-.23.12-.57a2.81,2.81,0,0,1,.6-1.18,2.72,2.72,0,0,1,1.11-.73c.33-.12.55-.14.55-.19s-.23-.08-.6,0a2.36,2.36,0,0,0-1.27.74,2.4,2.4,0,0,0-.59,1.34C147.5,185.1,147.58,185.32,147.61,185.32Z" style="fill:#ff9a6c"></path><path d="M150.84,181.22c0,.1,1.4.25,3.06.66s2.89,1.12,2.94,1A7.14,7.14,0,0,0,154,181.6a13.57,13.57,0,0,0-2.2-.37A2.75,2.75,0,0,0,150.84,181.22Z" style="fill:#ff9a6c"></path><path d="M135.39,198l-15.13,15.37,5.28-5.36-23.16-5.65s-1.53,8.61-2.32,14.59c-1.43,10.75,1.1,24.85,11.1,25.69,10.82.91,18.72-9.92,23.74-17,3.87-5.47,11.94-17.43,11.94-17.43Z" style="fill:#e0e0e0"></path><path d="M143.19,147.85s-2.62,4.4-17.31,22-26.19,41.64-26.19,41.64,4.26-37.36,13.45-48.83S143.19,147.85,143.19,147.85Z" style="fill:#263238"></path><path d="M174.1,148s34.27,32.52,34.61,33.71-2.35-24.09-15-29.44S174.1,148,174.1,148Z" style="fill:#263238"></path><path d="M174,148.61a6.26,6.26,0,0,1-.77.59L171,150.73l-3.44,2.34-2.11,1.41a8.33,8.33,0,0,1-1.2.73c-.43.2-.87.4-1.32.59l-.24.1-.08-.25c-.36-1.28-.74-2.64-1-4s-.79-2.85-1.1-4.38l.51,0-.18,1.51c-.3,2.33-.59,4.59-.85,6.68l0,.34-.32-.15a93.37,93.37,0,0,1-10.39-5.87c-1.24-.8-2.2-1.47-2.86-1.95a6.1,6.1,0,0,1-1-.77,8.21,8.21,0,0,1,1.07.63l2.92,1.83a112.9,112.9,0,0,0,10.45,5.68l-.36.2.83-6.68c.06-.52.13-1,.19-1.51l.2-1.59.31,1.57c.3,1.5.73,2.94,1.08,4.36s.67,2.76,1,4l-.31-.15a11.33,11.33,0,0,0,2.46-1.24l2.13-1.38,3.51-2.24,2.28-1.43A4.66,4.66,0,0,1,174,148.61Z" style="fill:#263238"></path><circle cx="160.75" cy="148.74" r="3.69" style="fill:#FF725E"></circle><path d="M159.2,146.91q-2-1.86-4.17-3.53a3.67,3.67,0,0,0-2.77-1.07,2.42,2.42,0,0,0-1.56,1.22,5.69,5.69,0,0,0-.6,1.94,16.38,16.38,0,0,0,.37,6.72c.21.76.62,1.63,1.4,1.71a2.07,2.07,0,0,0,1.31-.49l6.62-4.4Z" style="fill:#FF725E"></path><path d="M171.53,144.64c-.2-.75-.61-1.63-1.39-1.71a2.13,2.13,0,0,0-1.32.49l-6.61,4.4.59,2.11q2,1.86,4.17,3.53a3.72,3.72,0,0,0,2.77,1.07,2.44,2.44,0,0,0,1.57-1.22,5.46,5.46,0,0,0,.59-1.95A16.22,16.22,0,0,0,171.53,144.64Z" style="fill:#FF725E"></path><path d="M163.81,147.06a1.3,1.3,0,0,1,.36.57,3.67,3.67,0,0,1,.22,1.82,3.61,3.61,0,0,1-1.33,2.4,3.81,3.81,0,0,1-5.88-1.28,3.73,3.73,0,0,1,.75-4.3c.32-.29.54-.39.56-.36a5.13,5.13,0,0,0-1.17,2,3.37,3.37,0,0,0,.28,2.41,3.42,3.42,0,0,0,5.17,1.13A3.4,3.4,0,0,0,164,149.4,5.3,5.3,0,0,0,163.81,147.06Z" style="fill:#263238"></path><path d="M157.08,148.4c0,.15-.94.37-2.11.63a6.23,6.23,0,0,1-2.19.32,4.16,4.16,0,0,1,2.07-.83A4.1,4.1,0,0,1,157.08,148.4Z" style="fill:#263238"></path><path d="M157.55,147.66a5.21,5.21,0,0,1-2.23-.63,5.36,5.36,0,0,1-2-1.11,5.18,5.18,0,0,1,2.22.63A5.35,5.35,0,0,1,157.55,147.66Z" style="fill:#263238"></path><path d="M168.75,146.07a12.07,12.07,0,0,1-2.22,1.28,11.79,11.79,0,0,1-2.25,1.22c-.1-.1.72-1,2-1.68A4.6,4.6,0,0,1,168.75,146.07Z" style="fill:#263238"></path><path d="M169.3,149.57a12.52,12.52,0,0,1-5-.55,6.29,6.29,0,0,1,2.54,0A6.12,6.12,0,0,1,169.3,149.57Z" style="fill:#263238"></path><path d="M163.58,193.39s0,.27,0,.77v2.19c0,2-.07,4.7-.12,8.06-.14,6.85-.34,16.23-.57,26.59s-.53,19.73-.72,26.58c-.11,3.36-.21,6.1-.28,8.06,0,.91-.07,1.64-.1,2.19a4.12,4.12,0,0,1-.07.76,3.69,3.69,0,0,1,0-.76v-2.2c0-1.95.07-4.69.12-8.05.14-6.86.34-16.24.56-26.6s.54-19.73.72-26.58c.12-3.36.22-6.1.28-8.06,0-.91.08-1.64.1-2.19A3.51,3.51,0,0,1,163.58,193.39Z" style="fill:#263238"></path><path d="M135.39,198a5.35,5.35,0,0,1-.82,1.07c-.56.67-1.41,1.61-2.47,2.75-2.13,2.28-5.12,5.38-8.51,8.72-1.69,1.67-3.32,3.25-4.84,4.64s-3,2.52-4.14,3.59a16.79,16.79,0,0,0-2.42,2.73c-.49.71-.71,1.14-.75,1.12s0-.12.11-.34a6.73,6.73,0,0,1,.47-.89,14.43,14.43,0,0,1,2.34-2.89c1.1-1.12,2.57-2.27,4.06-3.67s3.12-3,4.81-4.66l8.6-8.6,2.59-2.63A7.41,7.41,0,0,1,135.39,198Z" style="fill:#263238"></path></g></svg>